<svg id="svg" version="1.1" xmlns="http://www.w3.org/2000/svg" xmlns:xlink="http://www.w3.org/1999/xlink" width="400" height="153.75" viewBox="0, 0, 400,153.75"><g id="svgg"><path id="path0" d="M70.000 28.263 C 69.679 28.298,68.254 28.408,66.833 28.506 C 47.490 29.845,37.193 35.199,31.246 47.008 C 30.925 47.645,30.720 48.168,30.790 48.169 C 30.859 48.171,30.832 48.227,30.729 48.294 C 30.468 48.465,29.298 51.641,29.272 52.250 C 29.260 52.525,29.206 52.788,29.151 52.833 C 29.016 52.947,28.120 61.646,28.100 63.040 C 28.091 63.658,28.020 64.165,27.943 64.165 C 27.866 64.166,27.828 64.579,27.860 65.084 C 27.891 65.588,27.854 66.000,27.777 66.000 C 27.700 66.000,27.662 66.450,27.694 67.000 C 27.725 67.550,27.687 68.000,27.611 68.000 C 27.534 68.000,27.497 68.488,27.527 69.084 C 27.558 69.680,27.521 70.167,27.445 70.167 C 27.368 70.167,27.331 70.692,27.361 71.334 C 27.392 71.976,27.355 72.501,27.279 72.500 C 27.203 72.500,27.166 73.100,27.196 73.834 C 27.226 74.567,27.189 75.167,27.114 75.167 C 27.039 75.167,27.001 75.879,27.030 76.750 C 27.059 77.621,27.027 78.334,26.958 78.334 C 26.890 78.334,26.833 81.146,26.833 84.583 C 26.833 88.021,26.890 90.833,26.958 90.833 C 27.027 90.833,27.058 91.358,27.028 92.000 C 26.997 92.659,27.041 93.167,27.130 93.167 C 27.216 93.167,27.252 93.351,27.209 93.576 C 27.055 94.380,28.252 101.803,28.635 102.414 C 28.693 102.507,28.762 102.723,28.789 102.894 C 29.447 107.125,34.180 114.328,38.910 118.297 C 46.231 124.440,57.446 127.209,75.000 127.206 C 100.017 127.203,113.019 121.923,119.416 109.169 C 119.922 108.159,120.279 107.332,120.210 107.331 C 120.140 107.329,120.163 107.273,120.261 107.206 C 121.490 106.361,125.098 90.222,124.619 87.715 C 124.579 87.505,124.617 87.333,124.705 87.333 C 124.793 87.333,124.838 86.893,124.806 86.333 C 124.775 85.783,124.811 85.333,124.886 85.333 C 124.961 85.333,124.998 84.583,124.969 83.666 C 124.940 82.749,124.973 81.999,125.042 82.000 C 125.110 82.000,125.167 79.862,125.167 77.250 C 125.167 74.637,125.110 72.500,125.042 72.500 C 124.973 72.501,124.941 71.788,124.970 70.917 C 124.999 70.046,124.961 69.333,124.886 69.334 C 124.811 69.334,124.775 68.884,124.806 68.334 C 124.838 67.783,124.800 67.333,124.723 67.334 C 124.646 67.334,124.608 66.856,124.638 66.271 L 124.693 65.208 124.146 65.128 C 123.664 65.057,123.451 65.175,122.341 66.123 C 113.151 73.977,100.521 74.614,91.167 67.693 C 79.041 58.722,77.273 42.257,87.226 31.006 C 88.248 29.852,88.445 29.542,88.313 29.295 C 88.224 29.129,88.204 28.908,88.268 28.804 C 88.350 28.671,88.233 28.645,87.872 28.717 C 87.589 28.774,86.546 28.706,85.554 28.566 C 83.843 28.326,71.578 28.086,70.000 28.263 " stroke="none" fill="#7babfc" fill-rule="evenodd"></path><path id="path1" d="M103.667 22.054 C 103.667 22.144,103.317 22.163,102.833 22.099 C 102.311 22.030,102.000 22.051,102.000 22.157 C 102.000 22.257,101.786 22.282,101.474 22.220 C 101.128 22.151,100.985 22.174,101.056 22.288 C 101.115 22.384,101.014 22.501,100.831 22.549 C 100.649 22.597,100.542 22.568,100.593 22.484 C 100.644 22.401,100.569 22.333,100.427 22.333 C 100.284 22.333,100.167 22.390,100.167 22.460 C 100.167 22.727,99.466 23.033,99.280 22.847 C 99.051 22.617,98.833 22.615,98.833 22.843 C 98.833 22.940,98.908 22.973,99.000 22.917 C 99.092 22.860,99.167 22.893,99.167 22.990 C 99.167 23.214,99.063 23.212,98.630 22.981 C 98.337 22.824,98.299 22.837,98.386 23.064 C 98.498 23.356,98.252 23.439,98.083 23.167 C 97.947 22.946,97.667 22.953,97.667 23.177 C 97.667 23.274,97.742 23.307,97.833 23.250 C 97.925 23.193,98.000 23.217,98.000 23.303 C 98.000 23.388,97.777 23.503,97.505 23.557 C 97.233 23.612,96.853 23.814,96.660 24.006 C 96.333 24.334,96.284 24.339,95.905 24.091 C 95.682 23.945,95.500 23.899,95.500 23.988 C 95.500 24.077,95.631 24.227,95.792 24.320 C 95.952 24.413,95.996 24.492,95.889 24.495 C 95.782 24.498,95.585 24.542,95.452 24.593 C 95.319 24.644,95.087 24.564,94.938 24.414 C 94.785 24.261,94.667 24.225,94.667 24.331 C 94.667 24.435,94.592 24.473,94.500 24.417 C 94.408 24.360,94.333 24.398,94.333 24.500 C 94.333 24.602,94.263 24.643,94.177 24.590 C 94.091 24.536,94.026 24.626,94.032 24.788 C 94.039 24.950,93.989 25.215,93.920 25.377 C 93.821 25.611,93.859 25.650,94.106 25.570 C 94.277 25.514,94.162 25.640,93.852 25.849 L 93.286 26.229 92.862 25.740 C 92.595 25.431,92.481 25.367,92.556 25.565 C 92.661 25.845,92.642 25.855,92.389 25.649 C 92.140 25.446,92.117 25.451,92.206 25.688 C 92.262 25.837,92.219 26.055,92.112 26.171 C 91.960 26.336,91.968 26.353,92.151 26.249 C 92.300 26.163,92.345 26.179,92.275 26.293 C 92.214 26.391,92.259 26.503,92.374 26.541 C 92.498 26.583,92.415 26.700,92.166 26.833 C 91.780 27.039,91.767 27.034,91.987 26.767 C 92.204 26.504,92.187 26.489,91.786 26.589 C 91.393 26.688,91.354 26.658,91.416 26.308 C 91.482 25.939,91.461 25.946,91.058 26.417 C 90.823 26.692,90.681 26.804,90.744 26.667 C 90.833 26.471,90.810 26.475,90.637 26.683 C 90.516 26.830,90.344 26.955,90.254 26.962 C 90.165 26.969,90.065 27.074,90.033 27.196 C 89.997 27.332,90.027 27.353,90.112 27.250 C 90.337 26.978,90.664 26.980,90.560 27.252 C 90.431 27.586,89.690 27.598,89.801 27.264 C 89.829 27.180,89.529 27.397,89.134 27.746 C 88.315 28.470,87.964 28.823,88.333 28.549 C 89.133 27.957,88.697 29.947,87.796 31.002 C 77.985 42.492,79.223 57.484,90.750 66.784 C 99.740 74.037,112.169 73.751,121.679 66.073 C 123.282 64.780,123.587 64.612,124.144 64.720 C 124.532 64.796,125.667 64.304,125.667 64.060 C 125.667 64.016,125.586 64.030,125.487 64.091 C 124.821 64.503,124.727 63.547,125.357 62.762 C 125.711 62.321,126.002 62.026,126.006 62.105 C 126.009 62.185,126.155 62.078,126.331 61.867 C 126.506 61.656,126.609 61.356,126.559 61.200 C 126.504 61.028,126.524 60.987,126.609 61.095 C 126.948 61.525,128.175 61.084,127.896 60.633 C 127.851 60.560,127.898 60.500,128.000 60.500 C 128.102 60.500,128.140 60.425,128.083 60.333 C 128.027 60.242,128.064 60.167,128.167 60.167 C 128.269 60.167,128.307 60.092,128.250 60.000 C 128.193 59.908,128.231 59.833,128.333 59.833 C 128.436 59.833,128.473 59.758,128.417 59.667 C 128.360 59.575,128.398 59.500,128.500 59.500 C 128.602 59.500,128.640 59.425,128.583 59.333 C 128.527 59.242,128.564 59.167,128.667 59.167 C 128.769 59.167,128.807 59.092,128.750 59.000 C 128.693 58.908,128.731 58.833,128.833 58.833 C 128.936 58.833,128.973 58.758,128.917 58.667 C 128.860 58.575,128.898 58.500,129.000 58.500 C 129.102 58.500,129.140 58.425,129.083 58.333 C 129.027 58.242,129.057 58.167,129.152 58.167 C 129.246 58.167,129.280 58.054,129.227 57.917 C 129.174 57.779,129.218 57.667,129.325 57.667 C 129.432 57.667,129.473 57.592,129.417 57.500 C 129.360 57.408,129.398 57.333,129.500 57.333 C 129.602 57.333,129.640 57.258,129.583 57.167 C 129.527 57.075,129.560 57.000,129.657 57.000 C 129.754 57.000,129.833 56.921,129.833 56.823 C 129.833 56.726,129.740 56.694,129.625 56.753 C 129.510 56.811,129.555 56.745,129.725 56.607 C 129.895 56.469,129.984 56.276,129.924 56.178 C 129.863 56.080,129.901 56.000,130.008 56.000 C 130.115 56.000,130.159 55.887,130.106 55.750 C 130.054 55.612,130.091 55.500,130.190 55.500 C 130.288 55.500,130.326 55.387,130.273 55.250 C 130.220 55.112,130.258 55.000,130.356 55.000 C 130.455 55.000,130.492 54.887,130.440 54.750 C 130.387 54.612,130.421 54.500,130.516 54.500 C 130.617 54.500,130.642 54.351,130.577 54.146 C 130.494 53.886,130.520 53.826,130.673 53.921 C 130.829 54.017,130.854 53.938,130.771 53.608 C 130.702 53.334,130.729 53.167,130.841 53.167 C 130.947 53.167,130.978 53.027,130.917 52.833 C 130.852 52.629,130.887 52.500,131.007 52.500 C 131.131 52.500,131.166 52.352,131.101 52.094 C 131.045 51.870,131.078 51.638,131.176 51.578 C 131.276 51.516,131.308 51.264,131.250 51.000 C 131.193 50.742,131.219 50.487,131.308 50.432 C 131.399 50.376,131.429 49.901,131.378 49.333 C 131.315 48.643,131.346 48.333,131.477 48.333 C 131.598 48.333,131.667 47.970,131.667 47.333 C 131.667 46.697,131.598 46.333,131.477 46.333 C 131.346 46.333,131.320 46.056,131.394 45.427 C 131.458 44.880,131.434 44.479,131.333 44.416 C 131.241 44.360,131.209 44.138,131.263 43.925 C 131.316 43.711,131.286 43.491,131.196 43.435 C 131.105 43.379,131.068 43.192,131.113 43.019 C 131.159 42.846,131.121 42.658,131.030 42.602 C 130.939 42.546,130.904 42.350,130.952 42.167 C 131.003 41.972,130.957 41.833,130.842 41.833 C 130.720 41.833,130.685 41.705,130.750 41.500 C 130.809 41.313,130.780 41.167,130.683 41.167 C 130.588 41.167,130.554 41.054,130.606 40.917 C 130.659 40.779,130.611 40.667,130.500 40.667 C 130.382 40.667,130.341 40.554,130.402 40.395 C 130.463 40.236,130.385 40.025,130.211 39.883 C 130.042 39.744,130.023 39.695,130.167 39.766 C 130.338 39.851,130.318 39.778,130.105 39.535 C 129.933 39.339,129.837 39.064,129.891 38.923 C 129.945 38.782,129.919 38.667,129.833 38.667 C 129.747 38.667,129.720 38.554,129.773 38.417 C 129.826 38.279,129.782 38.167,129.675 38.167 C 129.568 38.167,129.527 38.092,129.583 38.000 C 129.640 37.908,129.609 37.833,129.515 37.833 C 129.421 37.833,129.387 37.721,129.440 37.583 C 129.494 37.442,129.444 37.333,129.323 37.333 C 129.207 37.333,129.155 37.290,129.208 37.236 C 129.262 37.183,129.156 36.989,128.973 36.807 C 128.790 36.624,128.683 36.364,128.735 36.228 C 128.796 36.071,128.760 36.025,128.636 36.102 C 128.506 36.182,128.479 36.128,128.553 35.935 C 128.627 35.743,128.600 35.688,128.470 35.769 C 128.340 35.849,128.312 35.795,128.386 35.602 C 128.460 35.409,128.433 35.355,128.303 35.435 C 128.173 35.516,128.146 35.461,128.220 35.269 C 128.285 35.099,128.263 35.024,128.165 35.085 C 127.994 35.190,127.984 35.167,127.918 34.543 C 127.869 34.070,127.105 32.872,126.526 32.357 C 126.282 32.140,126.196 32.015,126.333 32.077 C 126.471 32.140,126.438 32.073,126.260 31.929 C 126.082 31.785,125.884 31.667,125.819 31.667 C 125.755 31.667,125.658 31.550,125.603 31.408 C 125.538 31.238,125.574 31.185,125.710 31.254 C 125.945 31.373,125.482 30.969,124.600 30.285 C 124.270 30.029,124.000 29.733,124.000 29.628 C 124.000 29.523,124.210 29.620,124.467 29.844 C 124.723 30.067,124.479 29.820,123.925 29.295 C 122.666 28.102,120.890 26.678,121.069 27.005 C 121.143 27.140,121.026 27.057,120.810 26.821 C 120.245 26.206,119.725 25.832,119.899 26.167 C 119.971 26.304,119.866 26.229,119.667 26.000 C 119.467 25.771,119.354 25.696,119.415 25.833 C 119.475 25.971,119.407 25.938,119.262 25.760 C 119.118 25.582,118.998 25.507,118.995 25.593 C 118.992 25.679,118.913 25.617,118.818 25.455 C 118.724 25.292,118.576 25.203,118.490 25.256 C 118.404 25.310,118.333 25.269,118.333 25.167 C 118.333 25.064,118.258 25.027,118.167 25.083 C 118.075 25.140,118.000 25.102,118.000 25.000 C 118.000 24.898,117.933 24.855,117.851 24.906 C 117.769 24.957,117.656 24.878,117.599 24.732 C 117.539 24.575,117.391 24.506,117.240 24.564 C 117.098 24.618,117.022 24.600,117.069 24.522 C 117.178 24.346,116.363 23.962,116.154 24.091 C 116.069 24.143,116.000 24.094,116.000 23.982 C 116.000 23.870,115.954 23.824,115.897 23.881 C 115.840 23.938,115.680 23.871,115.542 23.732 C 115.404 23.594,115.188 23.520,115.062 23.569 C 114.936 23.617,114.833 23.576,114.833 23.477 C 114.833 23.378,114.721 23.341,114.583 23.394 C 114.446 23.446,114.333 23.409,114.333 23.310 C 114.333 23.212,114.221 23.174,114.083 23.227 C 113.946 23.280,113.833 23.242,113.833 23.144 C 113.833 23.045,113.721 23.008,113.583 23.060 C 113.446 23.113,113.333 23.084,113.333 22.995 C 113.333 22.906,113.254 22.833,113.157 22.833 C 113.060 22.833,113.028 22.927,113.086 23.042 C 113.144 23.156,113.077 23.109,112.937 22.937 C 112.792 22.759,112.572 22.667,112.425 22.724 C 112.283 22.778,112.167 22.741,112.167 22.642 C 112.167 22.543,112.017 22.500,111.833 22.548 C 111.650 22.596,111.500 22.562,111.500 22.471 C 111.500 22.375,111.292 22.353,111.000 22.417 C 110.663 22.491,110.500 22.462,110.500 22.328 C 110.500 22.191,110.318 22.164,109.917 22.239 C 109.540 22.310,109.333 22.284,109.333 22.167 C 109.333 22.049,109.127 22.024,108.750 22.094 C 108.397 22.161,108.167 22.137,108.167 22.036 C 108.167 21.931,107.327 21.874,105.917 21.883 C 104.646 21.892,103.667 21.966,103.667 22.054 M96.667 23.510 C 96.667 23.607,96.592 23.640,96.500 23.583 C 96.408 23.527,96.333 23.560,96.333 23.657 C 96.333 23.912,96.592 23.874,96.833 23.583 C 96.977 23.411,96.983 23.333,96.854 23.333 C 96.751 23.333,96.667 23.413,96.667 23.510 M75.292 28.121 C 75.590 28.158,76.077 28.158,76.375 28.121 C 76.673 28.084,76.429 28.053,75.833 28.053 C 75.237 28.053,74.994 28.084,75.292 28.121 M36.991 38.792 L 36.417 39.417 37.042 38.842 C 37.623 38.308,37.743 38.167,37.616 38.167 C 37.588 38.167,37.307 38.448,36.991 38.792 M125.039 72.000 C 125.039 72.321,125.073 72.452,125.115 72.292 C 125.157 72.131,125.157 71.869,125.115 71.708 C 125.073 71.548,125.039 71.679,125.039 72.000 M125.042 82.583 C 125.044 82.950,125.078 83.080,125.118 82.873 C 125.158 82.666,125.156 82.366,125.115 82.206 C 125.073 82.047,125.040 82.217,125.042 82.583 M26.735 85.000 C 26.735 86.513,26.760 87.131,26.791 86.375 C 26.822 85.619,26.822 84.381,26.791 83.625 C 26.760 82.869,26.735 83.487,26.735 85.000 M36.583 116.333 C 37.035 116.792,37.442 117.167,37.487 117.167 C 37.533 117.167,37.201 116.792,36.750 116.333 C 36.299 115.875,35.892 115.500,35.846 115.500 C 35.800 115.500,36.132 115.875,36.583 116.333 M71.128 127.287 C 71.428 127.325,71.878 127.324,72.128 127.286 C 72.378 127.248,72.133 127.217,71.583 127.218 C 71.033 127.219,70.828 127.250,71.128 127.287 M77.792 127.287 C 78.090 127.324,78.577 127.324,78.875 127.287 C 79.173 127.250,78.929 127.220,78.333 127.220 C 77.737 127.220,77.494 127.250,77.792 127.287 " stroke="none" fill="#045cfc" fill-rule="evenodd"></path><path id="path2" d="M168.696 50.552 L 168.333 50.938 168.333 79.707 L 168.333 108.476 168.772 108.821 C 169.287 109.226,179.212 109.367,180.057 108.982 C 180.827 108.631,180.833 108.542,180.833 97.992 L 180.833 88.000 184.958 88.005 L 189.083 88.011 194.497 98.190 C 198.002 104.780,200.078 108.509,200.385 108.768 L 200.859 109.167 206.740 109.167 C 215.087 109.167,214.809 109.963,209.702 100.703 C 207.694 97.062,205.281 92.624,204.340 90.841 C 202.597 87.539,201.322 85.317,200.866 84.791 C 200.562 84.439,200.461 84.548,202.065 83.501 C 211.339 77.447,212.292 61.649,203.816 54.463 C 199.116 50.478,197.315 50.174,178.404 50.169 L 169.058 50.167 168.696 50.552 M312.643 50.485 L 312.250 50.804 312.201 73.694 C 312.145 100.156,312.148 100.223,313.679 103.496 C 315.618 107.638,320.573 110.066,326.547 109.801 C 329.967 109.649,329.994 109.601,329.998 103.886 C 330.001 98.343,329.998 98.337,327.545 98.334 C 326.244 98.333,325.392 97.929,324.951 97.104 L 324.583 96.417 324.480 81.500 C 324.423 73.296,324.367 63.040,324.355 58.708 C 324.334 51.071,324.323 50.823,324.000 50.500 C 323.494 49.994,313.266 49.981,312.643 50.485 M191.036 61.241 C 195.695 62.072,198.060 66.277,196.738 71.381 C 195.572 75.879,193.654 76.827,185.708 76.831 L 180.833 76.833 180.833 68.917 L 180.833 61.000 185.292 61.006 C 188.317 61.010,190.163 61.085,191.036 61.241 M233.908 65.489 C 214.835 68.848,209.584 95.285,225.799 106.309 C 234.118 111.964,247.051 111.337,255.553 104.868 C 257.141 103.659,257.158 103.821,254.976 99.527 C 252.333 94.328,252.347 94.338,249.997 95.938 C 242.825 100.823,234.178 100.291,230.679 94.750 C 230.008 93.687,228.940 90.898,229.103 90.634 C 229.149 90.560,235.262 90.500,242.687 90.500 C 251.300 90.500,256.300 90.440,256.498 90.335 C 257.108 90.008,257.250 89.097,257.242 85.583 C 257.209 71.662,247.301 63.130,233.908 65.489 M285.183 65.352 C 281.532 65.676,278.399 66.928,275.958 69.038 L 275.000 69.866 275.000 68.611 C 275.000 66.123,275.009 66.127,268.889 66.198 L 264.471 66.250 264.067 66.719 L 263.664 67.189 263.707 95.827 C 263.749 123.723,263.758 124.474,264.067 124.816 C 264.564 125.365,275.102 125.365,275.599 124.816 C 275.902 124.482,275.919 124.047,275.963 115.487 L 276.008 106.508 277.116 107.266 C 284.061 112.021,293.885 110.982,299.993 104.847 C 309.553 95.245,308.238 75.334,297.575 68.240 C 294.642 66.288,290.156 64.984,287.083 65.190 C 286.900 65.202,286.045 65.275,285.183 65.352 M330.417 66.282 C 328.870 66.678,328.607 65.930,337.935 87.700 C 346.272 107.156,346.368 107.394,346.178 108.028 C 344.352 114.124,340.424 116.611,336.083 114.421 C 333.864 113.300,333.726 113.419,331.699 118.202 C 329.962 122.299,329.881 122.728,330.708 123.430 C 333.344 125.665,340.141 126.676,344.250 125.444 C 348.862 124.061,352.075 121.262,354.464 116.544 C 355.510 114.479,355.670 114.078,363.750 93.250 C 366.560 86.008,369.784 77.721,370.914 74.833 C 374.669 65.246,375.108 66.121,366.579 66.200 L 361.174 66.250 360.767 66.667 C 360.401 67.042,352.647 89.478,352.257 91.290 C 352.082 92.105,351.898 92.079,351.659 91.205 C 351.540 90.772,350.512 87.867,349.374 84.750 C 348.236 81.633,346.527 76.946,345.575 74.333 C 343.245 67.937,342.775 66.807,342.319 66.504 C 341.938 66.251,331.312 66.053,330.417 66.282 M239.998 75.447 C 242.272 76.074,243.962 77.826,244.599 80.218 C 245.027 81.827,245.858 81.667,237.072 81.667 L 229.311 81.667 229.415 81.292 C 230.217 78.409,232.825 75.932,235.667 75.354 C 237.504 74.980,238.371 74.998,239.998 75.447 M286.685 76.170 C 295.856 77.909,296.781 95.489,287.887 99.019 C 286.446 99.591,283.250 99.589,281.587 99.015 C 275.248 96.829,273.354 83.944,278.604 78.725 C 280.723 76.619,283.846 75.632,286.685 76.170 " stroke="none" fill="#040404" fill-rule="evenodd"></path><path id="path3" d="M105.375 21.948 C 105.535 21.990,105.798 21.990,105.958 21.948 C 106.119 21.906,105.987 21.872,105.667 21.872 C 105.346 21.872,105.215 21.906,105.375 21.948 M102.875 22.115 C 103.035 22.157,103.298 22.157,103.458 22.115 C 103.619 22.073,103.487 22.039,103.167 22.039 C 102.846 22.039,102.715 22.073,102.875 22.115 M99.754 22.659 C 99.700 22.747,99.553 22.779,99.428 22.731 C 99.303 22.683,99.150 22.725,99.089 22.825 C 99.027 22.924,98.888 22.956,98.780 22.895 C 98.672 22.834,98.686 22.889,98.813 23.017 C 98.991 23.198,99.059 23.203,99.118 23.041 C 99.161 22.925,99.264 22.874,99.347 22.925 C 99.431 22.977,99.666 22.902,99.870 22.760 C 100.074 22.617,100.154 22.500,100.047 22.500 C 99.940 22.500,99.809 22.572,99.754 22.659 M97.867 23.200 C 97.757 23.310,97.667 23.338,97.667 23.263 C 97.667 23.188,97.554 23.219,97.417 23.333 C 97.279 23.447,97.167 23.483,97.167 23.411 C 97.167 23.340,97.026 23.409,96.854 23.564 C 96.682 23.720,96.476 23.835,96.396 23.821 C 95.857 23.722,95.612 24.046,96.087 24.228 C 96.227 24.282,96.491 24.176,96.676 23.991 C 96.860 23.807,97.233 23.612,97.505 23.557 C 97.777 23.503,98.000 23.395,98.000 23.318 C 98.000 23.240,98.125 23.225,98.277 23.284 C 98.464 23.355,98.515 23.326,98.434 23.195 C 98.281 22.947,98.119 22.948,97.867 23.200 M95.078 24.233 C 94.704 24.507,95.137 24.729,95.664 24.533 C 95.986 24.414,95.987 24.405,95.683 24.215 C 95.440 24.064,95.304 24.068,95.078 24.233 M93.216 25.121 C 92.922 25.267,92.637 25.504,92.582 25.647 C 92.527 25.790,92.537 25.852,92.603 25.786 C 92.669 25.720,92.858 25.788,93.022 25.937 C 93.299 26.187,93.361 26.180,93.869 25.838 C 94.170 25.635,94.285 25.511,94.125 25.563 C 93.788 25.671,93.768 25.601,94.006 25.156 C 94.221 24.754,93.975 24.743,93.216 25.121 M91.833 26.000 C 91.833 26.092,91.733 26.167,91.611 26.167 C 91.489 26.167,91.389 26.284,91.389 26.428 C 91.389 26.623,91.494 26.663,91.807 26.584 C 92.187 26.488,92.203 26.505,91.987 26.767 C 91.767 27.034,91.780 27.039,92.166 26.833 C 92.415 26.700,92.498 26.583,92.374 26.541 C 92.259 26.503,92.214 26.391,92.275 26.293 C 92.346 26.178,92.303 26.165,92.151 26.256 C 91.951 26.376,91.951 26.355,92.145 26.115 C 92.343 25.872,92.337 25.833,92.104 25.833 C 91.955 25.833,91.833 25.908,91.833 26.000 M90.231 27.073 C 90.176 27.216,90.036 27.333,89.919 27.333 C 89.803 27.333,89.605 27.460,89.479 27.615 C 89.281 27.859,89.284 27.876,89.500 27.743 C 89.761 27.582,89.848 27.555,90.232 27.521 C 90.519 27.495,90.710 27.047,90.492 26.911 C 90.403 26.857,90.286 26.929,90.231 27.073 M88.333 28.667 C 88.217 28.885,88.210 29.103,88.315 29.298 C 88.444 29.540,88.241 29.860,87.226 31.006 C 77.273 42.257,79.041 58.722,91.167 67.693 C 100.521 74.614,113.151 73.977,122.341 66.123 C 123.408 65.211,123.675 65.059,124.101 65.121 C 124.403 65.166,124.678 65.104,124.792 64.966 C 124.948 64.778,124.859 64.732,124.299 64.710 C 123.463 64.676,123.313 64.754,121.679 66.073 C 112.169 73.751,99.740 74.037,90.750 66.784 C 79.223 57.484,77.985 42.492,87.796 31.002 C 88.627 30.029,88.673 29.927,88.629 29.154 C 88.577 28.220,88.574 28.216,88.333 28.667 M124.000 29.606 C 124.000 29.821,124.804 30.585,124.914 30.475 C 124.960 30.429,124.772 30.178,124.498 29.915 C 124.224 29.652,124.000 29.514,124.000 29.606 M127.833 34.560 C 127.833 34.741,128.994 37.000,129.088 37.000 C 129.133 37.000,128.899 36.456,128.566 35.792 C 127.942 34.545,127.833 34.363,127.833 34.560 M131.375 45.750 C 131.377 46.117,131.411 46.247,131.451 46.040 C 131.491 45.832,131.490 45.532,131.448 45.373 C 131.406 45.214,131.374 45.383,131.375 45.750 M131.381 49.083 C 131.382 49.542,131.415 49.709,131.453 49.456 C 131.491 49.203,131.490 48.828,131.451 48.623 C 131.411 48.418,131.380 48.625,131.381 49.083 M126.559 61.200 C 126.609 61.356,126.506 61.656,126.331 61.867 C 126.155 62.078,126.009 62.185,126.006 62.105 C 126.002 62.026,125.711 62.321,125.357 62.762 C 124.720 63.556,124.717 63.568,125.032 63.906 L 125.350 64.248 125.835 63.692 C 126.102 63.386,126.366 62.993,126.422 62.818 C 126.477 62.643,126.592 62.500,126.678 62.500 C 126.763 62.500,126.833 62.387,126.833 62.250 C 126.833 62.112,126.908 62.000,127.000 62.000 C 127.092 62.000,127.167 61.887,127.167 61.750 C 127.167 61.612,127.246 61.500,127.343 61.500 C 127.440 61.500,127.470 61.420,127.410 61.322 C 127.349 61.224,127.182 61.189,127.038 61.244 C 126.894 61.299,126.707 61.248,126.623 61.131 C 126.511 60.976,126.494 60.995,126.559 61.200 " stroke="none" fill="#246cfc" fill-rule="evenodd"></path><path id="path4" d="" stroke="none" fill="#445c3c" fill-rule="evenodd"></path></g></svg>