<svg width="2245" height="698" version="1.1" xmlns="http://www.w3.org/2000/svg" desc="Created with imagetracer.js version 1.2.6" ><path fill="rgb(233,236,243)" stroke="rgb(233,236,243)" stroke-width="1" opacity="1" d="M 594.5 19 L 595.5 21 L 594.5 19 Z " /><path fill="rgb(233,236,243)" stroke="rgb(233,236,243)" stroke-width="1" opacity="1" d="M 414.5 22 L 413.5 24 L 414.5 22 Z " /><path fill="rgb(233,236,243)" stroke="rgb(233,236,243)" stroke-width="1" opacity="1" d="M 601.5 24 L 602.5 26 L 601.5 24 Z " /><path fill="rgb(233,236,243)" stroke="rgb(233,236,243)" stroke-width="1" opacity="1" d="M 410.5 25 L 409.5 27 L 410.5 25 Z " /><path fill="rgb(233,236,243)" stroke="rgb(233,236,243)" stroke-width="1" opacity="1" d="M 606.5 28 L 607.5 30 L 606.5 28 Z " /><path fill="rgb(233,236,243)" stroke="rgb(233,236,243)" stroke-width="1" opacity="1" d="M 405.5 29 L 404.5 31 L 405.5 29 Z " /><path fill="rgb(233,236,243)" stroke="rgb(233,236,243)" stroke-width="1" opacity="1" d="M 308.5 33 L 325 33.5 L 308.5 34 L 308.5 33 Z " /><path fill="rgb(233,236,243)" stroke="rgb(233,236,243)" stroke-width="1" opacity="1" d="M 612.5 33 L 624.5 46 L 612.5 33 Z " /><path fill="rgb(233,236,243)" stroke="rgb(233,236,243)" stroke-width="1" opacity="1" d="M 277.5 34 L 287 34.5 L 277.5 35 L 277.5 34 Z " /><path fill="rgb(233,236,243)" stroke="rgb(233,236,243)" stroke-width="1" opacity="1" d="M 346.5 34 L 356 34.5 L 346.5 35 L 346.5 34 Z " /><path fill="rgb(233,236,243)" stroke="rgb(233,236,243)" stroke-width="1" opacity="1" d="M 263.5 35 L 269 35.5 L 263.5 36 L 263.5 35 Z " /><path fill="rgb(233,236,243)" stroke="rgb(233,236,243)" stroke-width="1" opacity="1" d="M 364.5 35 L 370 35.5 L 364.5 36 L 364.5 35 Z " /><path fill="rgb(233,236,243)" stroke="rgb(233,236,243)" stroke-width="1" opacity="1" d="M 251.5 36 L 256 36.5 L 251.5 37 L 251.5 36 Z " /><path fill="rgb(233,236,243)" stroke="rgb(233,236,243)" stroke-width="1" opacity="1" d="M 376.5 36 L 381 36.5 L 376.5 37 L 376.5 36 Z " /><path fill="rgb(233,236,243)" stroke="rgb(233,236,243)" stroke-width="1" opacity="1" d="M 397.5 36 L 396.5 38 L 397.5 36 Z " /><path fill="rgb(233,236,243)" stroke="rgb(233,236,243)" stroke-width="1" opacity="1" d="M 241.5 37 L 246 37.5 L 241.5 38 L 241.5 37 Z " /><path fill="rgb(233,236,243)" stroke="rgb(233,236,243)" stroke-width="1" opacity="1" d="M 386.5 37 L 391 37.5 L 386.5 38 L 386.5 37 Z " /><path fill="rgb(233,236,243)" stroke="rgb(233,236,243)" stroke-width="1" opacity="1" d="M 232.5 38 L 236 38.5 L 232.5 39 L 232.5 38 Z " /><path fill="rgb(233,236,243)" stroke="rgb(233,236,243)" stroke-width="1" opacity="1" d="M 225.5 39 L 228 39.5 L 225.5 40 L 225.5 39 Z " /><path fill="rgb(233,236,243)" stroke="rgb(233,236,243)" stroke-width="1" opacity="1" d="M 217.5 40 L 220 40.5 L 217.5 41 L 217.5 40 Z " /><path fill="rgb(233,236,243)" stroke="rgb(233,236,243)" stroke-width="1" opacity="1" d="M 211.5 41 L 214 41.5 L 211.5 42 L 211.5 41 Z " /><path fill="rgb(233,236,243)" stroke="rgb(233,236,243)" stroke-width="1" opacity="1" d="M 205.5 42 L 208 42.5 L 205.5 43 L 205.5 42 Z " /><path fill="rgb(233,236,243)" stroke="rgb(233,236,243)" stroke-width="1" opacity="1" d="M 199.5 43 L 202 43.5 L 199.5 44 L 199.5 43 Z " /><path fill="rgb(233,236,243)" stroke="rgb(233,236,243)" stroke-width="1" opacity="1" d="M 174.5 48 L 177 48.5 L 174.5 49 L 174.5 48 Z " /><path fill="rgb(233,236,243)" stroke="rgb(233,236,243)" stroke-width="1" opacity="1" d="M 629.5 51 L 630.5 53 L 629.5 51 Z " /><path fill="rgb(233,236,243)" stroke="rgb(233,236,243)" stroke-width="1" opacity="1" d="M 635.5 59 L 636.5 61 L 635.5 59 Z " /><path fill="rgb(233,236,243)" stroke="rgb(233,236,243)" stroke-width="1" opacity="1" d="M 110.5 71 L 109.5 73 L 110.5 71 Z " /><path fill="rgb(233,236,243)" stroke="rgb(233,236,243)" stroke-width="1" opacity="1" d="M 100.5 77 L 99.5 79 L 100.5 77 Z " /><path fill="rgb(233,236,243)" stroke="rgb(233,236,243)" stroke-width="1" opacity="1" d="M 97.5 79 L 96.5 81 L 97.5 79 Z " /><path fill="rgb(233,236,243)" stroke="rgb(233,236,243)" stroke-width="1" opacity="1" d="M 94.5 81 L 93.5 83 L 94.5 81 Z " /><path fill="rgb(233,236,243)" stroke="rgb(233,236,243)" stroke-width="1" opacity="1" d="M 90.5 84 L 89.5 86 L 90.5 84 Z " /><path fill="rgb(233,236,243)" stroke="rgb(233,236,243)" stroke-width="1" opacity="1" d="M 86.5 87 L 85.5 89 L 86.5 87 Z " /><path fill="rgb(233,236,243)" stroke="rgb(233,236,243)" stroke-width="1" opacity="1" d="M 81.5 91 L 78.5 95 L 81.5 91 Z " /><path fill="rgb(233,236,243)" stroke="rgb(233,236,243)" stroke-width="1" opacity="1" d="M 70.5 101 L 69.5 103 L 70.5 101 Z " /><path fill="rgb(233,236,243)" stroke="rgb(233,236,243)" stroke-width="1" opacity="1" d="M 62.5 110 L 60.5 113 L 62.5 110 Z " /><path fill="rgb(233,236,243)" stroke="rgb(233,236,243)" stroke-width="1" opacity="1" d="M 57.5 116 L 55.5 119 L 57.5 116 Z " /><path fill="rgb(233,236,243)" stroke="rgb(233,236,243)" stroke-width="1" opacity="1" d="M 53.5 121 L 52.5 123 L 53.5 121 Z " /><path fill="rgb(233,236,243)" stroke="rgb(233,236,243)" stroke-width="1" opacity="1" d="M 51.5 124 L 50.5 126 L 51.5 124 Z " /><path fill="rgb(233,236,243)" stroke="rgb(233,236,243)" stroke-width="1" opacity="1" d="M 664.5 135 L 665 137.5 L 664 137.5 L 664.5 135 Z " /><path fill="rgb(233,236,243)" stroke="rgb(233,236,243)" stroke-width="1" opacity="1" d="M 664.5 166 L 665 168.5 L 664 168.5 L 664.5 166 Z " /><path fill="rgb(233,236,243)" stroke="rgb(233,236,243)" stroke-width="1" opacity="1" d="M 1036.5 174 L 1046 174.5 L 1036.5 175 L 1036.5 174 Z " /><path fill="rgb(233,236,243)" stroke="rgb(233,236,243)" stroke-width="1" opacity="1" d="M 1060.5 175 L 1063 175.5 L 1060.5 176 L 1060.5 175 Z " /><path fill="rgb(233,236,243)" stroke="rgb(233,236,243)" stroke-width="1" opacity="1" d="M 1119.5 192 L 1120.5 194 L 1119.5 192 Z " /><path fill="rgb(233,236,243)" stroke="rgb(233,236,243)" stroke-width="1" opacity="1" d="M 1127.5 198 L 1128.5 200 L 1127.5 198 Z " /><path fill="rgb(233,236,243)" stroke="rgb(233,236,243)" stroke-width="1" opacity="1" d="M 1140.5 211 L 1141.5 213 L 1140.5 211 Z " /><path fill="rgb(233,236,243)" stroke="rgb(233,236,243)" stroke-width="1" opacity="1" d="M 15.5 215 L 16 217.5 L 15 217.5 L 15.5 215 Z " /><path fill="rgb(233,236,243)" stroke="rgb(233,236,243)" stroke-width="1" opacity="1" d="M 12.5 231 L 13 233.5 L 12 233.5 L 12.5 231 Z " /><path fill="rgb(233,236,243)" stroke="rgb(233,236,243)" stroke-width="1" opacity="1" d="M 980.5 232 L 981 345 L 1043 345.5 L 981.5 346 L 980 344.5 L 980.5 232 Z " /><path fill="rgb(233,236,243)" stroke="rgb(233,236,243)" stroke-width="1" opacity="1" d="M 1040.5 232 L 1043 232.5 L 1040.5 233 L 1040.5 232 Z " /><path fill="rgb(233,236,243)" stroke="rgb(233,236,243)" stroke-width="1" opacity="1" d="M 11.5 237 L 12 239.5 L 11 239.5 L 11.5 237 Z " /><path fill="rgb(233,236,243)" stroke="rgb(233,236,243)" stroke-width="1" opacity="1" d="M 10.5 243 L 11 245.5 L 10 245.5 L 10.5 243 Z " /><path fill="rgb(233,236,243)" stroke="rgb(233,236,243)" stroke-width="1" opacity="1" d="M 1081.5 245 L 1084.5 249 L 1081.5 245 Z " /><path fill="rgb(233,236,243)" stroke="rgb(233,236,243)" stroke-width="1" opacity="1" d="M 632.5 248 L 631.5 250 L 632.5 248 Z " /><path fill="rgb(233,236,243)" stroke="rgb(233,236,243)" stroke-width="1" opacity="1" d="M 9.5 250 L 10 252.5 L 9 252.5 L 9.5 250 Z " /><path fill="rgb(233,236,243)" stroke="rgb(233,236,243)" stroke-width="1" opacity="1" d="M 1087.5 252 L 1088.5 254 L 1087.5 252 Z " /><path fill="rgb(233,236,243)" stroke="rgb(233,236,243)" stroke-width="1" opacity="1" d="M 628.5 253 L 626.5 256 L 628.5 253 Z " /><path fill="rgb(233,236,243)" stroke="rgb(233,236,243)" stroke-width="1" opacity="1" d="M 8.5 257 L 9 259.5 L 8 259.5 L 8.5 257 Z " /><path fill="rgb(233,236,243)" stroke="rgb(233,236,243)" stroke-width="1" opacity="1" d="M 7.5 264 L 8 267.5 L 7 267.5 L 7.5 264 Z " /><path fill="rgb(233,236,243)" stroke="rgb(233,236,243)" stroke-width="1" opacity="1" d="M 621.5 269 L 622 274.5 L 621 274.5 L 621.5 269 Z " /><path fill="rgb(233,236,243)" stroke="rgb(233,236,243)" stroke-width="1" opacity="1" d="M 1340.5 271 L 1343 271.5 L 1340.5 272 L 1340.5 271 Z " /><path fill="rgb(233,236,243)" stroke="rgb(233,236,243)" stroke-width="1" opacity="1" d="M 1365.5 271 L 1368 271.5 L 1365.5 272 L 1365.5 271 Z " /><path fill="rgb(233,236,243)" stroke="rgb(233,236,243)" stroke-width="1" opacity="1" d="M 1655.5 271 L 1658 271.5 L 1655.5 272 L 1655.5 271 Z " /><path fill="rgb(233,236,243)" stroke="rgb(233,236,243)" stroke-width="1" opacity="1" d="M 1678.5 271 L 1681 271.5 L 1678.5 272 L 1678.5 271 Z " /><path fill="rgb(233,236,243)" stroke="rgb(233,236,243)" stroke-width="1" opacity="1" d="M 6.5 272 L 7 276.5 L 6 276.5 L 6.5 272 Z " /><path fill="rgb(233,236,243)" stroke="rgb(233,236,243)" stroke-width="1" opacity="1" d="M 5.5 282 L 6 285.5 L 5 285.5 L 5.5 282 Z " /><path fill="rgb(233,236,243)" stroke="rgb(233,236,243)" stroke-width="1" opacity="1" d="M 622.5 282 L 623 287.5 L 622 287.5 L 622.5 282 Z " /><path fill="rgb(233,236,243)" stroke="rgb(233,236,243)" stroke-width="1" opacity="1" d="M 1419.5 288 L 1420.5 290 L 1419.5 288 Z " /><path fill="rgb(233,236,243)" stroke="rgb(233,236,243)" stroke-width="1" opacity="1" d="M 1603.5 291 L 1601.5 294 L 1603.5 291 Z " /><path fill="rgb(233,236,243)" stroke="rgb(233,236,243)" stroke-width="1" opacity="1" d="M 1735.5 292 L 1736.5 294 L 1735.5 292 Z " /><path fill="rgb(233,236,243)" stroke="rgb(233,236,243)" stroke-width="1" opacity="1" d="M 4.5 293 L 5 298.5 L 4 298.5 L 4.5 293 Z " /><path fill="rgb(233,236,243)" stroke="rgb(233,236,243)" stroke-width="1" opacity="1" d="M 1427.5 294 L 1429.5 297 L 1427.5 294 Z " /><path fill="rgb(233,236,243)" stroke="rgb(233,236,243)" stroke-width="1" opacity="1" d="M 1164.5 295 L 1165 297.5 L 1164 297.5 L 1164.5 295 Z " /><path fill="rgb(233,236,243)" stroke="rgb(233,236,243)" stroke-width="1" opacity="1" d="M 1272.5 296 L 1271.5 298 L 1272.5 296 Z " /><path fill="rgb(233,236,243)" stroke="rgb(233,236,243)" stroke-width="1" opacity="1" d="M 1740.5 296 L 1749.5 306 L 1740.5 296 Z " /><path fill="rgb(233,236,243)" stroke="rgb(233,236,243)" stroke-width="1" opacity="1" d="M 623.5 297 L 624 303.5 L 623 303.5 L 623.5 297 Z " /><path fill="rgb(233,236,243)" stroke="rgb(233,236,243)" stroke-width="1" opacity="1" d="M 1267.5 300 L 1266.5 302 L 1267.5 300 Z " /><path fill="rgb(233,236,243)" stroke="rgb(233,236,243)" stroke-width="1" opacity="1" d="M 1583.5 303 L 1584 306.5 L 1583 306.5 L 1583.5 303 Z " /><path fill="rgb(233,236,243)" stroke="rgb(233,236,243)" stroke-width="1" opacity="1" d="M 1590.5 304 L 1587.5 308 L 1590.5 304 Z " /><path fill="rgb(233,236,243)" stroke="rgb(233,236,243)" stroke-width="1" opacity="1" d="M 1438.5 305 L 1440.5 308 L 1438.5 305 Z " /><path fill="rgb(233,236,243)" stroke="rgb(233,236,243)" stroke-width="1" opacity="1" d="M 3.5 307 L 4 316.5 L 3 316.5 L 3.5 307 Z " /><path fill="rgb(233,236,243)" stroke="rgb(233,236,243)" stroke-width="1" opacity="1" d="M 1753.5 310 L 1754.5 312 L 1753.5 310 Z " /><path fill="rgb(233,236,243)" stroke="rgb(233,236,243)" stroke-width="1" opacity="1" d="M 1252.5 315 L 1251.5 317 L 1252.5 315 Z " /><path fill="rgb(233,236,243)" stroke="rgb(233,236,243)" stroke-width="1" opacity="1" d="M 624.5 318 L 625 337.5 L 624 337.5 L 624.5 318 Z " /><path fill="rgb(233,236,243)" stroke="rgb(233,236,243)" stroke-width="1" opacity="1" d="M 1085.5 326 L 1084.5 328 L 1085.5 326 Z " /><path fill="rgb(233,236,243)" stroke="rgb(233,236,243)" stroke-width="1" opacity="1" d="M 1079.5 332 L 1077.5 335 L 1079.5 332 Z " /><path fill="rgb(233,236,243)" stroke="rgb(233,236,243)" stroke-width="1" opacity="1" d="M 1384.5 332 L 1385.5 334 L 1384.5 332 Z " /><path fill="rgb(233,236,243)" stroke="rgb(233,236,243)" stroke-width="1" opacity="1" d="M 1314.5 333 L 1313.5 335 L 1314.5 333 Z " /><path fill="rgb(233,236,243)" stroke="rgb(233,236,243)" stroke-width="1" opacity="1" d="M 2.5 337 L 3 351.5 L 2 351.5 L 2.5 337 Z " /><path fill="rgb(233,236,243)" stroke="rgb(233,236,243)" stroke-width="1" opacity="1" d="M 1391.5 339 L 1392.5 341 L 1391.5 339 Z " /><path fill="rgb(233,236,243)" stroke="rgb(233,236,243)" stroke-width="1" opacity="1" d="M 1689.5 339 L 1690.5 341 L 1689.5 339 Z " /><path fill="rgb(233,236,243)" stroke="rgb(233,236,243)" stroke-width="1" opacity="1" d="M 1304.5 343 L 1303.5 345 L 1304.5 343 Z " /><path fill="rgb(233,236,243)" stroke="rgb(233,236,243)" stroke-width="1" opacity="1" d="M 1611.5 343 L 1606.5 349 L 1611.5 343 Z " /><path fill="rgb(233,236,243)" stroke="rgb(233,236,243)" stroke-width="1" opacity="1" d="M 1301.5 347 L 1300.5 349 L 1301.5 347 Z " /><path fill="rgb(233,236,243)" stroke="rgb(233,236,243)" stroke-width="1" opacity="1" d="M 1698.5 348 L 1700.5 351 L 1698.5 348 Z " /><path fill="rgb(233,236,243)" stroke="rgb(233,236,243)" stroke-width="1" opacity="1" d="M 624.5 351 L 625 369.5 L 624 369.5 L 624.5 351 Z " /><path fill="rgb(233,236,243)" stroke="rgb(233,236,243)" stroke-width="1" opacity="1" d="M 1603.5 352 L 1602.5 354 L 1603.5 352 Z " /><path fill="rgb(233,236,243)" stroke="rgb(233,236,243)" stroke-width="1" opacity="1" d="M 1142.5 354 L 1141.5 356 L 1142.5 354 Z " /><path fill="rgb(233,236,243)" stroke="rgb(233,236,243)" stroke-width="1" opacity="1" d="M 1138.5 359 L 1136.5 362 L 1138.5 359 Z " /><path fill="rgb(233,236,243)" stroke="rgb(233,236,243)" stroke-width="1" opacity="1" d="M 1129.5 368 L 1127.5 371 L 1129.5 368 Z " /><path fill="rgb(233,236,243)" stroke="rgb(233,236,243)" stroke-width="1" opacity="1" d="M 3.5 370 L 4 379.5 L 3 379.5 L 3.5 370 Z " /><path fill="rgb(233,236,243)" stroke="rgb(233,236,243)" stroke-width="1" opacity="1" d="M 623.5 383 L 624 388.5 L 623 388.5 L 623.5 383 Z " /><path fill="rgb(233,236,243)" stroke="rgb(233,236,243)" stroke-width="1" opacity="1" d="M 1103.5 385 L 1105.5 388 L 1103.5 385 Z " /><path fill="rgb(233,236,243)" stroke="rgb(233,236,243)" stroke-width="1" opacity="1" d="M 1783.5 387 L 1784 389.5 L 1783 389.5 L 1783.5 387 Z " /><path fill="rgb(233,236,243)" stroke="rgb(233,236,243)" stroke-width="1" opacity="1" d="M 4.5 388 L 5 393.5 L 4 393.5 L 4.5 388 Z " /><path fill="rgb(233,236,243)" stroke="rgb(233,236,243)" stroke-width="1" opacity="1" d="M 1470.5 388 L 1471 398.5 L 1470 398.5 L 1470.5 388 Z " /><path fill="rgb(233,236,243)" stroke="rgb(233,236,243)" stroke-width="1" opacity="1" d="M 622.5 396 L 623 401.5 L 622 401.5 L 622.5 396 Z " /><path fill="rgb(233,236,243)" stroke="rgb(233,236,243)" stroke-width="1" opacity="1" d="M 1717.5 397 L 1718 399.5 L 1717 399.5 L 1717.5 397 Z " /><path fill="rgb(233,236,243)" stroke="rgb(233,236,243)" stroke-width="1" opacity="1" d="M 5.5 401 L 6 404.5 L 5 404.5 L 5.5 401 Z " /><path fill="rgb(233,236,243)" stroke="rgb(233,236,243)" stroke-width="1" opacity="1" d="M 980.5 404 L 981 539.5 L 980 539.5 L 980.5 404 Z " /><path fill="rgb(233,236,243)" stroke="rgb(233,236,243)" stroke-width="1" opacity="1" d="M 1784.5 405 L 1785 411.5 L 1784 411.5 L 1784.5 405 Z " /><path fill="rgb(233,236,243)" stroke="rgb(233,236,243)" stroke-width="1" opacity="1" d="M 621.5 407 L 622 411.5 L 621 411.5 L 621.5 407 Z " /><path fill="rgb(233,236,243)" stroke="rgb(233,236,243)" stroke-width="1" opacity="1" d="M 6.5 410 L 7 414.5 L 6 414.5 L 6.5 410 Z " /><path fill="rgb(233,236,243)" stroke="rgb(233,236,243)" stroke-width="1" opacity="1" d="M 1469.5 411 L 1470 414.5 L 1469 414.5 L 1469.5 411 Z " /><path fill="rgb(233,236,243)" stroke="rgb(233,236,243)" stroke-width="1" opacity="1" d="M 620.5 417 L 621 420.5 L 620 420.5 L 620.5 417 Z " /><path fill="rgb(233,236,243)" stroke="rgb(233,236,243)" stroke-width="1" opacity="1" d="M 1717.5 419 L 1718 421.5 L 1717 421.5 L 1717.5 419 Z " /><path fill="rgb(233,236,243)" stroke="rgb(233,236,243)" stroke-width="1" opacity="1" d="M 7.5 420 L 8 422.5 L 7 422.5 L 7.5 420 Z " /><path fill="rgb(233,236,243)" stroke="rgb(233,236,243)" stroke-width="1" opacity="1" d="M 619.5 425 L 620 427.5 L 619 427.5 L 619.5 425 Z " /><path fill="rgb(233,236,243)" stroke="rgb(233,236,243)" stroke-width="1" opacity="1" d="M 8.5 427 L 9 430.5 L 8 430.5 L 8.5 427 Z " /><path fill="rgb(233,236,243)" stroke="rgb(233,236,243)" stroke-width="1" opacity="1" d="M 618.5 432 L 619 435.5 L 618 435.5 L 618.5 432 Z " /><path fill="rgb(233,236,243)" stroke="rgb(233,236,243)" stroke-width="1" opacity="1" d="M 9.5 435 L 10 437.5 L 9 437.5 L 9.5 435 Z " /><path fill="rgb(233,236,243)" stroke="rgb(233,236,243)" stroke-width="1" opacity="1" d="M 10.5 442 L 11 444.5 L 10 444.5 L 10.5 442 Z " /><path fill="rgb(233,236,243)" stroke="rgb(233,236,243)" stroke-width="1" opacity="1" d="M 616.5 446 L 617 448.5 L 616 448.5 L 616.5 446 Z " /><path fill="rgb(233,236,243)" stroke="rgb(233,236,243)" stroke-width="1" opacity="1" d="M 11.5 448 L 12 450.5 L 11 450.5 L 11.5 448 Z " /><path fill="rgb(233,236,243)" stroke="rgb(233,236,243)" stroke-width="1" opacity="1" d="M 615.5 452 L 616 454.5 L 615 454.5 L 615.5 452 Z " /><path fill="rgb(233,236,243)" stroke="rgb(233,236,243)" stroke-width="1" opacity="1" d="M 1301.5 459 L 1302.5 461 L 1301.5 459 Z " /><path fill="rgb(233,236,243)" stroke="rgb(233,236,243)" stroke-width="1" opacity="1" d="M 13.5 460 L 14 462.5 L 13 462.5 L 13.5 460 Z " /><path fill="rgb(233,236,243)" stroke="rgb(233,236,243)" stroke-width="1" opacity="1" d="M 613.5 463 L 614 465.5 L 613 465.5 L 613.5 463 Z " /><path fill="rgb(233,236,243)" stroke="rgb(233,236,243)" stroke-width="1" opacity="1" d="M 1304.5 463 L 1312.5 472 L 1304.5 463 Z " /><path fill="rgb(233,236,243)" stroke="rgb(233,236,243)" stroke-width="1" opacity="1" d="M 1834.5 463 L 1835 467.5 L 1834 467.5 L 1834.5 463 Z " /><path fill="rgb(233,236,243)" stroke="rgb(233,236,243)" stroke-width="1" opacity="1" d="M 1437.5 464 L 1436.5 466 L 1437.5 464 Z " /><path fill="rgb(233,236,243)" stroke="rgb(233,236,243)" stroke-width="1" opacity="1" d="M 1433.5 467 L 1432.5 469 L 1433.5 467 Z " /><path fill="rgb(233,236,243)" stroke="rgb(233,236,243)" stroke-width="1" opacity="1" d="M 1699.5 468 L 1697.5 471 L 1699.5 468 Z " /><path fill="rgb(233,236,243)" stroke="rgb(233,236,243)" stroke-width="1" opacity="1" d="M 1606.5 469 L 1607.5 471 L 1606.5 469 Z " /><path fill="rgb(233,236,243)" stroke="rgb(233,236,243)" stroke-width="1" opacity="1" d="M 15.5 471 L 16 473.5 L 15 473.5 L 15.5 471 Z " /><path fill="rgb(233,236,243)" stroke="rgb(233,236,243)" stroke-width="1" opacity="1" d="M 1692.5 475 L 1690.5 478 L 1692.5 475 Z " /><path fill="rgb(233,236,243)" stroke="rgb(233,236,243)" stroke-width="1" opacity="1" d="M 16.5 476 L 17 478.5 L 16 478.5 L 16.5 476 Z " /><path fill="rgb(233,236,243)" stroke="rgb(233,236,243)" stroke-width="1" opacity="1" d="M 1614.5 477 L 1615.5 479 L 1614.5 477 Z " /><path fill="rgb(233,236,243)" stroke="rgb(233,236,243)" stroke-width="1" opacity="1" d="M 1908.5 478 L 1909.5 480 L 1908.5 478 Z " /><path fill="rgb(233,236,243)" stroke="rgb(233,236,243)" stroke-width="1" opacity="1" d="M 1687.5 479 L 1686.5 481 L 1687.5 479 Z " /><path fill="rgb(233,236,243)" stroke="rgb(233,236,243)" stroke-width="1" opacity="1" d="M 609.5 483 L 610 485.5 L 609 485.5 L 609.5 483 Z " /><path fill="rgb(233,236,243)" stroke="rgb(233,236,243)" stroke-width="1" opacity="1" d="M 1929.5 483 L 1933 483.5 L 1929.5 484 L 1929.5 483 Z " /><path fill="rgb(233,236,243)" stroke="rgb(233,236,243)" stroke-width="1" opacity="1" d="M 1651.5 490 L 1654 490.5 L 1651.5 491 L 1651.5 490 Z " /><path fill="rgb(233,236,243)" stroke="rgb(233,236,243)" stroke-width="1" opacity="1" d="M 1246.5 491 L 1247.5 493 L 1246.5 491 Z " /><path fill="rgb(233,236,243)" stroke="rgb(233,236,243)" stroke-width="1" opacity="1" d="M 1250.5 496 L 1251.5 498 L 1250.5 496 Z " /><path fill="rgb(233,236,243)" stroke="rgb(233,236,243)" stroke-width="1" opacity="1" d="M 1254.5 501 L 1265.5 513 L 1254.5 501 Z " /><path fill="rgb(233,236,243)" stroke="rgb(233,236,243)" stroke-width="1" opacity="1" d="M 1755.5 502 L 1754.5 504 L 1755.5 502 Z " /><path fill="rgb(233,236,243)" stroke="rgb(233,236,243)" stroke-width="1" opacity="1" d="M 1751.5 507 L 1740.5 519 L 1751.5 507 Z " /><path fill="rgb(233,236,243)" stroke="rgb(233,236,243)" stroke-width="1" opacity="1" d="M 1270.5 516 L 1271.5 518 L 1270.5 516 Z " /><path fill="rgb(233,236,243)" stroke="rgb(233,236,243)" stroke-width="1" opacity="1" d="M 1589.5 520 L 1590 529.5 L 1589 529.5 L 1589.5 520 Z " /><path fill="rgb(233,236,243)" stroke="rgb(233,236,243)" stroke-width="1" opacity="1" d="M 1735.5 522 L 1734.5 524 L 1735.5 522 Z " /><path fill="rgb(233,236,243)" stroke="rgb(233,236,243)" stroke-width="1" opacity="1" d="M 1731.5 525 L 1730.5 527 L 1731.5 525 Z " /><path fill="rgb(233,236,243)" stroke="rgb(233,236,243)" stroke-width="1" opacity="1" d="M 1908.5 542 L 1922 542.5 L 1908.5 543 L 1908.5 542 Z " /><path fill="rgb(233,236,243)" stroke="rgb(233,236,243)" stroke-width="1" opacity="1" d="M 1345.5 545 L 1348 545.5 L 1345.5 546 L 1345.5 545 Z " /><path fill="rgb(233,236,243)" stroke="rgb(233,236,243)" stroke-width="1" opacity="1" d="M 1374.5 545 L 1377 545.5 L 1374.5 546 L 1374.5 545 Z " /><path fill="rgb(233,236,243)" stroke="rgb(233,236,243)" stroke-width="1" opacity="1" d="M 584.5 552 L 583.5 554 L 584.5 552 Z " /><path fill="rgb(233,236,243)" stroke="rgb(233,236,243)" stroke-width="1" opacity="1" d="M 48.5 562 L 49.5 564 L 48.5 562 Z " /><path fill="rgb(233,236,243)" stroke="rgb(233,236,243)" stroke-width="1" opacity="1" d="M 576.5 564 L 575.5 566 L 576.5 564 Z " /><path fill="rgb(233,236,243)" stroke="rgb(233,236,243)" stroke-width="1" opacity="1" d="M 50.5 565 L 51.5 567 L 50.5 565 Z " /><path fill="rgb(233,236,243)" stroke="rgb(233,236,243)" stroke-width="1" opacity="1" d="M 574.5 567 L 572.5 570 L 574.5 567 Z " /><path fill="rgb(233,236,243)" stroke="rgb(233,236,243)" stroke-width="1" opacity="1" d="M 53.5 569 L 55.5 572 L 53.5 569 Z " /><path fill="rgb(233,236,243)" stroke="rgb(233,236,243)" stroke-width="1" opacity="1" d="M 570.5 572 L 569.5 574 L 570.5 572 Z " /><path fill="rgb(233,236,243)" stroke="rgb(233,236,243)" stroke-width="1" opacity="1" d="M 58.5 575 L 60.5 578 L 58.5 575 Z " /><path fill="rgb(233,236,243)" stroke="rgb(233,236,243)" stroke-width="1" opacity="1" d="M 566.5 577 L 562.5 582 L 566.5 577 Z " /><path fill="rgb(233,236,243)" stroke="rgb(233,236,243)" stroke-width="1" opacity="1" d="M 65.5 583 L 72.5 591 L 65.5 583 Z " /><path fill="rgb(233,236,243)" stroke="rgb(233,236,243)" stroke-width="1" opacity="1" d="M 550.5 593 L 546.5 598 L 550.5 593 Z " /><path fill="rgb(233,236,243)" stroke="rgb(233,236,243)" stroke-width="1" opacity="1" d="M 78.5 595 L 81.5 599 L 78.5 595 Z " /><path fill="rgb(233,236,243)" stroke="rgb(233,236,243)" stroke-width="1" opacity="1" d="M 543.5 599 L 541.5 602 L 543.5 599 Z " /><path fill="rgb(233,236,243)" stroke="rgb(233,236,243)" stroke-width="1" opacity="1" d="M 85.5 601 L 87.5 604 L 85.5 601 Z " /><path fill="rgb(233,236,243)" stroke="rgb(233,236,243)" stroke-width="1" opacity="1" d="M 538.5 603 L 537.5 605 L 538.5 603 Z " /><path fill="rgb(233,236,243)" stroke="rgb(233,236,243)" stroke-width="1" opacity="1" d="M 89.5 604 L 90.5 606 L 89.5 604 Z " /><path fill="rgb(233,236,243)" stroke="rgb(233,236,243)" stroke-width="1" opacity="1" d="M 2085.5 604 L 2084.5 606 L 2085.5 604 Z " /><path fill="rgb(233,236,243)" stroke="rgb(233,236,243)" stroke-width="1" opacity="1" d="M 534.5 606 L 533.5 608 L 534.5 606 Z " /><path fill="rgb(233,236,243)" stroke="rgb(233,236,243)" stroke-width="1" opacity="1" d="M 93.5 607 L 94.5 609 L 93.5 607 Z " /><path fill="rgb(233,236,243)" stroke="rgb(233,236,243)" stroke-width="1" opacity="1" d="M 531.5 608 L 530.5 610 L 531.5 608 Z " /><path fill="rgb(233,236,243)" stroke="rgb(233,236,243)" stroke-width="1" opacity="1" d="M 528.5 610 L 527.5 612 L 528.5 610 Z " /><path fill="rgb(233,236,243)" stroke="rgb(233,236,243)" stroke-width="1" opacity="1" d="M 2079.5 612 L 2078.5 614 L 2079.5 612 Z " /><path fill="rgb(233,236,243)" stroke="rgb(233,236,243)" stroke-width="1" opacity="1" d="M 105.5 615 L 106.5 617 L 105.5 615 Z " /><path fill="rgb(233,236,243)" stroke="rgb(233,236,243)" stroke-width="1" opacity="1" d="M 2066.5 625 L 2065.5 627 L 2066.5 625 Z " /><path fill="rgb(233,236,243)" stroke="rgb(233,236,243)" stroke-width="1" opacity="1" d="M 442.5 642 L 445 642.5 L 442.5 643 L 442.5 642 Z " /><path fill="rgb(233,236,243)" stroke="rgb(233,236,243)" stroke-width="1" opacity="1" d="M 182.5 643 L 185 643.5 L 182.5 644 L 182.5 643 Z " /><path fill="rgb(233,236,243)" stroke="rgb(233,236,243)" stroke-width="1" opacity="1" d="M 437.5 643 L 440 643.5 L 437.5 644 L 437.5 643 Z " /><path fill="rgb(233,236,243)" stroke="rgb(233,236,243)" stroke-width="1" opacity="1" d="M 426.5 645 L 429 645.5 L 426.5 646 L 426.5 645 Z " /><path fill="rgb(233,236,243)" stroke="rgb(233,236,243)" stroke-width="1" opacity="1" d="M 205.5 647 L 208 647.5 L 205.5 648 L 205.5 647 Z " /><path fill="rgb(233,236,243)" stroke="rgb(233,236,243)" stroke-width="1" opacity="1" d="M 414.5 647 L 417 647.5 L 414.5 648 L 414.5 647 Z " /><path fill="rgb(233,236,243)" stroke="rgb(233,236,243)" stroke-width="1" opacity="1" d="M 211.5 648 L 214 648.5 L 211.5 649 L 211.5 648 Z " /><path fill="rgb(233,236,243)" stroke="rgb(233,236,243)" stroke-width="1" opacity="1" d="M 408.5 648 L 411 648.5 L 408.5 649 L 408.5 648 Z " /><path fill="rgb(233,236,243)" stroke="rgb(233,236,243)" stroke-width="1" opacity="1" d="M 218.5 649 L 221 649.5 L 218.5 650 L 218.5 649 Z " /><path fill="rgb(233,236,243)" stroke="rgb(233,236,243)" stroke-width="1" opacity="1" d="M 401.5 649 L 404 649.5 L 401.5 650 L 401.5 649 Z " /><path fill="rgb(233,236,243)" stroke="rgb(233,236,243)" stroke-width="1" opacity="1" d="M 226.5 650 L 229 650.5 L 226.5 651 L 226.5 650 Z " /><path fill="rgb(233,236,243)" stroke="rgb(233,236,243)" stroke-width="1" opacity="1" d="M 393.5 650 L 396 650.5 L 393.5 651 L 393.5 650 Z " /><path fill="rgb(233,236,243)" stroke="rgb(233,236,243)" stroke-width="1" opacity="1" d="M 233.5 651 L 237 651.5 L 233.5 652 L 233.5 651 Z " /><path fill="rgb(233,236,243)" stroke="rgb(233,236,243)" stroke-width="1" opacity="1" d="M 384.5 651 L 388 651.5 L 384.5 652 L 384.5 651 Z " /><path fill="rgb(233,236,243)" stroke="rgb(233,236,243)" stroke-width="1" opacity="1" d="M 243.5 652 L 248 652.5 L 243.5 653 L 243.5 652 Z " /><path fill="rgb(233,236,243)" stroke="rgb(233,236,243)" stroke-width="1" opacity="1" d="M 375.5 652 L 379 652.5 L 375.5 653 L 375.5 652 Z " /><path fill="rgb(233,236,243)" stroke="rgb(233,236,243)" stroke-width="1" opacity="1" d="M 253.5 653 L 259 653.5 L 253.5 654 L 253.5 653 Z " /><path fill="rgb(233,236,243)" stroke="rgb(233,236,243)" stroke-width="1" opacity="1" d="M 363.5 653 L 369 653.5 L 363.5 654 L 363.5 653 Z " /><path fill="rgb(233,236,243)" stroke="rgb(233,236,243)" stroke-width="1" opacity="1" d="M 267.5 654 L 273 654.5 L 267.5 655 L 267.5 654 Z " /><path fill="rgb(233,236,243)" stroke="rgb(233,236,243)" stroke-width="1" opacity="1" d="M 348.5 654 L 355 654.5 L 348.5 655 L 348.5 654 Z " /><path fill="rgb(233,236,243)" stroke="rgb(233,236,243)" stroke-width="1" opacity="1" d="M 286.5 655 L 305 655.5 L 286.5 656 L 286.5 655 Z " /><path fill="rgb(233,236,243)" stroke="rgb(233,236,243)" stroke-width="1" opacity="1" d="M 316.5 655 L 335 655.5 L 316.5 656 L 316.5 655 Z " /><path fill="rgb(254,255,255)" stroke="rgb(254,255,255)" stroke-width="1" opacity="1" d="M 604.5 26 L 605.5 28 L 604.5 26 Z " /><path fill="rgb(254,255,255)" stroke="rgb(254,255,255)" stroke-width="1" opacity="1" d="M 407.5 27 L 406.5 29 L 407.5 27 Z " /><path fill="rgb(254,255,255)" stroke="rgb(254,255,255)" stroke-width="1" opacity="1" d="M 610.5 31 L 611.5 33 L 610.5 31 Z " /><path fill="rgb(254,255,255)" stroke="rgb(254,255,255)" stroke-width="1" opacity="1" d="M 298.5 33 L 308 33.5 L 298.5 34 L 298.5 33 Z " /><path fill="rgb(254,255,255)" stroke="rgb(254,255,255)" stroke-width="1" opacity="1" d="M 325.5 33 L 335 33.5 L 325.5 34 L 325.5 33 Z " /><path fill="rgb(254,255,255)" stroke="rgb(254,255,255)" stroke-width="1" opacity="1" d="M 400.5 33 L 398.5 36 L 400.5 33 Z " /><path fill="rgb(254,255,255)" stroke="rgb(254,255,255)" stroke-width="1" opacity="1" d="M 625.5 46 L 627.5 49 L 625.5 46 Z " /><path fill="rgb(254,255,255)" stroke="rgb(254,255,255)" stroke-width="1" opacity="1" d="M 92.5 82 L 91.5 84 L 92.5 82 Z " /><path fill="rgb(254,255,255)" stroke="rgb(254,255,255)" stroke-width="1" opacity="1" d="M 88.5 85 L 87.5 87 L 88.5 85 Z " /><path fill="rgb(254,255,255)" stroke="rgb(254,255,255)" stroke-width="1" opacity="1" d="M 83.5 89 L 82.5 91 L 83.5 89 Z " /><path fill="rgb(254,255,255)" stroke="rgb(254,255,255)" stroke-width="1" opacity="1" d="M 77.5 94 L 71.5 101 L 77.5 94 Z " /><path fill="rgb(254,255,255)" stroke="rgb(254,255,255)" stroke-width="1" opacity="1" d="M 68.5 103 L 62.5 110 L 68.5 103 Z " /><path fill="rgb(254,255,255)" stroke="rgb(254,255,255)" stroke-width="1" opacity="1" d="M 59.5 113 L 57.5 116 L 59.5 113 Z " /><path fill="rgb(254,255,255)" stroke="rgb(254,255,255)" stroke-width="1" opacity="1" d="M 913.5 174 L 914 539.5 L 913 539.5 L 913.5 174 Z " /><path fill="rgb(254,255,255)" stroke="rgb(254,255,255)" stroke-width="1" opacity="1" d="M 1134.5 204 L 1136.5 207 L 1134.5 204 Z " /><path fill="rgb(254,255,255)" stroke="rgb(254,255,255)" stroke-width="1" opacity="1" d="M 624.5 258 L 621.5 262 L 624.5 258 Z " /><path fill="rgb(254,255,255)" stroke="rgb(254,255,255)" stroke-width="1" opacity="1" d="M 622.5 279 L 623 281.5 L 622 281.5 L 622.5 279 Z " /><path fill="rgb(254,255,255)" stroke="rgb(254,255,255)" stroke-width="1" opacity="1" d="M 623.5 294 L 624 296.5 L 623 296.5 L 623.5 294 Z " /><path fill="rgb(254,255,255)" stroke="rgb(254,255,255)" stroke-width="1" opacity="1" d="M 3.5 304 L 4 306.5 L 3 306.5 L 3.5 304 Z " /><path fill="rgb(254,255,255)" stroke="rgb(254,255,255)" stroke-width="1" opacity="1" d="M 1261.5 305 L 1256.5 311 L 1261.5 305 Z " /><path fill="rgb(254,255,255)" stroke="rgb(254,255,255)" stroke-width="1" opacity="1" d="M 1441.5 308 L 1442.5 310 L 1441.5 308 Z " /><path fill="rgb(254,255,255)" stroke="rgb(254,255,255)" stroke-width="1" opacity="1" d="M 624.5 314 L 625 317.5 L 624 317.5 L 624.5 314 Z " /><path fill="rgb(254,255,255)" stroke="rgb(254,255,255)" stroke-width="1" opacity="1" d="M 1250.5 317 L 1249.5 319 L 1250.5 317 Z " /><path fill="rgb(254,255,255)" stroke="rgb(254,255,255)" stroke-width="1" opacity="1" d="M 2.5 327 L 3 336.5 L 2 336.5 L 2.5 327 Z " /><path fill="rgb(254,255,255)" stroke="rgb(254,255,255)" stroke-width="1" opacity="1" d="M 1083.5 328 L 1082.5 330 L 1083.5 328 Z " /><path fill="rgb(254,255,255)" stroke="rgb(254,255,255)" stroke-width="1" opacity="1" d="M 1386.5 334 L 1390.5 339 L 1386.5 334 Z " /><path fill="rgb(254,255,255)" stroke="rgb(254,255,255)" stroke-width="1" opacity="1" d="M 1691.5 341 L 1693.5 344 L 1691.5 341 Z " /><path fill="rgb(254,255,255)" stroke="rgb(254,255,255)" stroke-width="1" opacity="1" d="M 1696.5 346 L 1697.5 348 L 1696.5 346 Z " /><path fill="rgb(254,255,255)" stroke="rgb(254,255,255)" stroke-width="1" opacity="1" d="M 2.5 352 L 3 359.5 L 2 359.5 L 2.5 352 Z " /><path fill="rgb(254,255,255)" stroke="rgb(254,255,255)" stroke-width="1" opacity="1" d="M 624.5 370 L 625 373.5 L 624 373.5 L 624.5 370 Z " /><path fill="rgb(254,255,255)" stroke="rgb(254,255,255)" stroke-width="1" opacity="1" d="M 3.5 380 L 4 382.5 L 3 382.5 L 3.5 380 Z " /><path fill="rgb(254,255,255)" stroke="rgb(254,255,255)" stroke-width="1" opacity="1" d="M 1784.5 402 L 1785 404.5 L 1784 404.5 L 1784.5 402 Z " /><path fill="rgb(254,255,255)" stroke="rgb(254,255,255)" stroke-width="1" opacity="1" d="M 1220.5 406 L 1221 410.5 L 1220 410.5 L 1220.5 406 Z " /><path fill="rgb(254,255,255)" stroke="rgb(254,255,255)" stroke-width="1" opacity="1" d="M 1608.5 471 L 1610.5 474 L 1608.5 471 Z " /><path fill="rgb(254,255,255)" stroke="rgb(254,255,255)" stroke-width="1" opacity="1" d="M 1696.5 471 L 1693.5 475 L 1696.5 471 Z " /><path fill="rgb(254,255,255)" stroke="rgb(254,255,255)" stroke-width="1" opacity="1" d="M 1612.5 475 L 1613.5 477 L 1612.5 475 Z " /><path fill="rgb(254,255,255)" stroke="rgb(254,255,255)" stroke-width="1" opacity="1" d="M 1906.5 476 L 1907.5 478 L 1906.5 476 Z " /><path fill="rgb(254,255,255)" stroke="rgb(254,255,255)" stroke-width="1" opacity="1" d="M 1465.5 510 L 1464.5 512 L 1465.5 510 Z " /><path fill="rgb(254,255,255)" stroke="rgb(254,255,255)" stroke-width="1" opacity="1" d="M 1594.5 517 L 1598.5 522 L 1594.5 517 Z " /><path fill="rgb(254,255,255)" stroke="rgb(254,255,255)" stroke-width="1" opacity="1" d="M 1739.5 519 L 1738.5 521 L 1739.5 519 Z " /><path fill="rgb(254,255,255)" stroke="rgb(254,255,255)" stroke-width="1" opacity="1" d="M 1852.5 521 L 1856.5 526 L 1852.5 521 Z " /><path fill="rgb(254,255,255)" stroke="rgb(254,255,255)" stroke-width="1" opacity="1" d="M 572.5 570 L 571.5 572 L 572.5 570 Z " /><path fill="rgb(254,255,255)" stroke="rgb(254,255,255)" stroke-width="1" opacity="1" d="M 55.5 572 L 57.5 575 L 55.5 572 Z " /><path fill="rgb(254,255,255)" stroke="rgb(254,255,255)" stroke-width="1" opacity="1" d="M 569.5 574 L 567.5 577 L 569.5 574 Z " /><path fill="rgb(254,255,255)" stroke="rgb(254,255,255)" stroke-width="1" opacity="1" d="M 2034.5 575 L 2033.5 577 L 2034.5 575 Z " /><path fill="rgb(254,255,255)" stroke="rgb(254,255,255)" stroke-width="1" opacity="1" d="M 60.5 578 L 64.5 583 L 60.5 578 Z " /><path fill="rgb(254,255,255)" stroke="rgb(254,255,255)" stroke-width="1" opacity="1" d="M 562.5 582 L 551.5 594 L 562.5 582 Z " /><path fill="rgb(254,255,255)" stroke="rgb(254,255,255)" stroke-width="1" opacity="1" d="M 73.5 591 L 77.5 596 L 73.5 591 Z " /><path fill="rgb(254,255,255)" stroke="rgb(254,255,255)" stroke-width="1" opacity="1" d="M 545.5 598 L 544.5 600 L 545.5 598 Z " /><path fill="rgb(254,255,255)" stroke="rgb(254,255,255)" stroke-width="1" opacity="1" d="M 82.5 599 L 83.5 601 L 82.5 599 Z " /><path fill="rgb(254,255,255)" stroke="rgb(254,255,255)" stroke-width="1" opacity="1" d="M 540.5 602 L 539.5 604 L 540.5 602 Z " /><path fill="rgb(254,255,255)" stroke="rgb(254,255,255)" stroke-width="1" opacity="1" d="M 536.5 605 L 535.5 607 L 536.5 605 Z " /><path fill="rgb(254,255,255)" stroke="rgb(254,255,255)" stroke-width="1" opacity="1" d="M 91.5 606 L 92.5 608 L 91.5 606 Z " /><path fill="rgb(254,255,255)" stroke="rgb(254,255,255)" stroke-width="1" opacity="1" d="M 2075.5 617 L 2070.5 623 L 2075.5 617 Z " /><path fill="rgb(254,255,255)" stroke="rgb(254,255,255)" stroke-width="1" opacity="1" d="M 283.5 655 L 286 655.5 L 283.5 656 L 283.5 655 Z " /><path fill="rgb(254,255,255)" stroke="rgb(254,255,255)" stroke-width="1" opacity="1" d="M 335.5 655 L 338 655.5 L 335.5 656 L 335.5 655 Z " /><path fill="rgb(0,90,254)" stroke="rgb(0,90,254)" stroke-width="1" opacity="1" d="M 461.5 0 L 552.5 0 Q 597.5 14.5 625 46.5 Q 645.7 69.3 657 101.5 L 664 133.5 L 665 159.5 L 664 160.5 L 664 170.5 L 663 171.5 L 662 183.5 Q 657.7 203.2 650 219.5 Q 635.6 249.2 612.5 270 Q 591.9 288.9 563.5 300 L 535.5 308 L 520.5 309 L 519.5 310 L 493.5 310 L 461.5 304 L 442.5 297 Q 412.9 283.6 392 261.5 Q 370.3 239.2 358 207.5 L 350 177.5 L 349 160.5 L 348 159.5 L 348 143.5 L 349 142.5 L 349 132.5 L 352 115.5 L 361 88.5 Q 374.9 57.4 398.5 36 Q 423.8 11.8 461.5 0 Z " /><path fill="rgb(255,255,255)" stroke="rgb(255,255,255)" stroke-width="1" opacity="1" d="M 0 0 L 458 0.5 Q 440.4 5.4 426.5 14 Q 409 24 395.5 38 L 392.5 38 L 391.5 37 L 382.5 37 L 371.5 35 L 358.5 35 L 357.5 34 L 298.5 33 L 297.5 34 L 275.5 34 L 274.5 35 L 249.5 36 L 248.5 37 L 239.5 37 L 223.5 40 L 216.5 40 L 178.5 47 L 150.5 54 Q 95.5 71 62 109.5 Q 32.7 142.2 20 191.5 L 12 230.5 L 9 254.5 L 8 255.5 L 7 270.5 L 6 271.5 L 6 279.5 L 5 280.5 L 4 303.5 L 3 304.5 L 3 326.5 L 2 327.5 L 2 359.5 L 3 360.5 L 4 395.5 L 5 396.5 L 5 406.5 L 6 407.5 L 6 416.5 L 9 432.5 L 9 439.5 L 23 511.5 Q 39.7 564.3 77.5 596 Q 111 627 162.5 640 L 197.5 647 L 203.5 647 L 232.5 652 L 250.5 653 L 251.5 654 L 282.5 655 L 283.5 656 L 337.5 656 L 338.5 655 L 356.5 655 L 357.5 654 L 380.5 653 L 381.5 652 L 389.5 652 L 390.5 651 L 411.5 649 L 445.5 643 L 478.5 635 Q 530.4 618.4 563 582.5 Q 594.8 548.3 608 495.5 L 618 443.5 L 620 422.5 L 621 421.5 L 621 413.5 L 622 412.5 L 622 404.5 L 623 403.5 L 624 374.5 L 625 373.5 L 625 314.5 L 624 313.5 L 624 294.5 L 623 293.5 L 623 279.5 L 622 278.5 L 621 262.5 Q 643.5 240 656 207.5 L 661 191.5 L 665 169.5 L 665 134.5 L 660 108.5 Q 654.8 89.7 646 74.5 Q 631.8 49.2 610.5 31 Q 588.1 10.4 555 0.5 L 2245 0 L 2245 697.5 L 2244.5 698 L 0 698 L 0 0 Z M 913 174 L 913 540 L 981 540 L 981 404 L 1044 404 L 1115 539 L 1117 540 L 1191 540 L 1120 410 L 1104 384 Q 1117 380 1127 372 Q 1142 359 1152 341 L 1161 319 L 1165 298 L 1165 271 L 1160 246 Q 1152 222 1137 207 Q 1126 195 1112 187 L 1098 181 L 1080 177 L 1065 176 L 1064 175 L 1048 175 L 1047 174 L 913 174 Z M 1834 174 L 1834 469 L 1835 470 L 1836 486 L 1840 501 Q 1844 513 1852 522 Q 1862 533 1879 538 L 1896 542 L 1908 542 L 1909 543 L 1922 543 L 1923 542 L 1934 542 L 1935 541 L 1936 541 L 1936 483 L 1929 483 L 1928 484 L 1918 483 L 1911 480 L 1903 472 L 1900 459 L 1900 175 L 1900 174 L 1834 174 Z M 1340 271 L 1313 276 L 1294 283 Q 1275 292 1262 305 Q 1243 322 1232 347 L 1223 376 L 1222 389 L 1221 390 L 1221 406 L 1220 407 L 1222 434 L 1228 458 Q 1237 483 1253 501 Q 1271 522 1298 534 L 1326 543 L 1337 545 L 1345 545 L 1346 546 L 1377 546 L 1378 545 L 1386 545 L 1416 538 Q 1446 528 1468 509 L 1443 461 L 1426 473 L 1414 479 L 1395 486 L 1373 490 L 1360 490 L 1343 487 Q 1326 482 1315 473 Q 1303 464 1296 451 L 1291 438 L 1288 423 L 1289 421 L 1469 421 L 1470 416 L 1470 401 L 1471 400 L 1470 376 L 1466 355 Q 1458 328 1443 310 Q 1426 288 1398 277 L 1383 273 L 1370 272 L 1369 271 L 1340 271 Z M 1656 271 L 1639 274 L 1624 279 L 1605 290 L 1586 309 L 1584 314 L 1583 314 Q 1582 309 1584 308 L 1584 277 L 1524 277 L 1524 643 L 1525 643 L 1590 643 L 1590 520 L 1589 519 L 1590 511 L 1594 518 L 1615 534 L 1625 539 L 1633 542 L 1652 546 L 1679 546 L 1700 542 Q 1723 535 1739 521 Q 1759 504 1771 479 L 1777 464 L 1781 449 L 1783 431 L 1784 430 L 1784 415 L 1785 414 L 1783 379 L 1777 353 Q 1768 326 1751 307 Q 1735 287 1709 277 L 1695 273 L 1683 272 L 1682 271 L 1656 271 Z M 1944 277 L 2054 535 Q 2047 559 2033 578 Q 2024 589 2007 592 Q 1996 593 1990 591 Q 1978 588 1971 581 L 1948 631 Q 1955 637 1966 641 L 1982 646 L 1994 647 L 1995 648 L 2014 648 L 2031 645 Q 2055 638 2071 623 Q 2088 606 2098 582 L 2216 278 L 2143 277 L 2089 437 L 2084 461 L 2083 462 L 2073 427 L 2019 279 L 2018 277 L 1944 277 Z " /><path fill="rgb(255,255,255)" stroke="rgb(255,255,255)" stroke-width="1" opacity="1" d="M 981 232 L 1039.5 232 L 1040.5 233 L 1055.5 234 L 1073.5 240 L 1086 250.5 L 1095 268.5 L 1096 279.5 L 1097 280.5 L 1097 295.5 L 1093 313.5 L 1082 331 L 1068.5 340 L 1051.5 345 L 981 345 L 981 232 Z " /><path fill="rgb(255,255,255)" stroke="rgb(255,255,255)" stroke-width="1" opacity="1" d="M 1346.5 322 L 1364.5 323 L 1373.5 326 Q 1386.4 331.6 1394 342.5 L 1402 359.5 L 1404 376 L 1291.5 376 Q 1290.5 376 1291 371.5 Q 1296.5 349 1311.5 336 L 1328.5 326 L 1346.5 322 Z " /><path fill="rgb(255,255,255)" stroke="rgb(255,255,255)" stroke-width="1" opacity="1" d="M 1644.5 328 Q 1680.5 326.5 1696 345.5 Q 1719.9 369.1 1718 418.5 L 1717 419.5 L 1717 427.5 L 1715 437.5 L 1711 449.5 Q 1703.1 467.6 1688.5 479 Q 1679.8 485.8 1667.5 489 L 1662.5 490 L 1642.5 490 L 1630.5 487 L 1620.5 482 L 1611 475 L 1597 454.5 L 1592 441.5 L 1588 422.5 L 1588 395.5 L 1589 394.5 L 1590 382.5 L 1595 366.5 Q 1601.9 350.9 1614.5 341 L 1629.5 332 L 1644.5 328 Z " /><path fill="rgb(0,0,0)" stroke="rgb(0,0,0)" stroke-width="1" opacity="1" d="M 914 175 L 1052.5 175 L 1053.5 176 L 1074.5 177 L 1094.5 181 L 1111.5 188 Q 1129 197.6 1141 212.5 Q 1150.9 224.1 1157 239.5 L 1163 261.5 L 1164 283.5 L 1165 284.5 L 1164 285.5 L 1164 300.5 L 1162 311.5 L 1155 332.5 Q 1145 355 1127.5 370 Q 1116.9 379.2 1103 384 L 1119 409.5 L 1190 538.5 L 1116 539 L 1043.5 403 L 980 403 L 980 539 L 914 539 L 914 175 Z M 982 231 L 980 233 L 980 346 L 1050 346 L 1066 342 L 1081 333 Q 1088 326 1093 316 L 1096 307 L 1097 295 L 1098 294 L 1098 284 L 1097 283 L 1096 270 Q 1094 259 1088 252 Q 1077 237 1055 233 L 1032 232 L 1031 231 L 982 231 Z " /><path fill="rgb(0,0,0)" stroke="rgb(0,0,0)" stroke-width="1" opacity="1" d="M 1835 175 L 1898.5 175 L 1899 175.5 L 1899 456.5 L 1900 457.5 L 1901 468.5 L 1907.5 479 L 1918.5 484 L 1936 484 L 1936 539.5 L 1934.5 541 L 1903.5 542 L 1902.5 541 L 1888.5 540 L 1873.5 535 Q 1858.7 529.3 1850 517.5 Q 1842.6 507.9 1839 494.5 L 1835 471.5 L 1835 175 Z " /><path fill="rgb(0,0,0)" stroke="rgb(0,0,0)" stroke-width="1" opacity="1" d="M 1337.5 272 L 1370.5 272 L 1387.5 275 L 1400.5 279 Q 1425.4 289.1 1441 308.5 Q 1456 326 1464 350.5 L 1469 373.5 L 1470 402.5 L 1469 403.5 L 1469 419.5 L 1467.5 421 L 1288.5 421 Q 1287.3 421.3 1288 427.5 Q 1293.6 458.4 1314.5 474 Q 1324.9 482.6 1339.5 487 L 1352.5 490 Q 1362 488.5 1367.5 491 L 1368.5 490 L 1385.5 489 L 1400.5 485 L 1423.5 475 L 1441.5 462 L 1467 508.5 Q 1448.6 524.1 1424.5 534 L 1392.5 543 L 1380.5 544 L 1379.5 545 L 1363.5 545 L 1361.5 546 L 1360.5 545 L 1342.5 545 L 1341.5 544 L 1329.5 543 L 1299.5 534 Q 1272.9 522.1 1255 501.5 Q 1235.4 480.1 1226 448.5 L 1222 428.5 L 1221 398.5 L 1222 397.5 L 1222 387.5 L 1223 386.5 L 1224 374.5 L 1233 346.5 Q 1245.8 318.3 1268.5 300 Q 1280.5 290 1295.5 283 L 1315.5 276 L 1337.5 272 Z M 1352 321 L 1351 322 L 1341 322 L 1329 325 L 1312 335 Q 1295 348 1290 373 L 1291 376 L 1405 376 Q 1403 372 1404 365 L 1401 354 L 1392 339 Q 1385 330 1374 325 L 1364 322 L 1352 321 Z " /><path fill="rgb(0,0,0)" stroke="rgb(0,0,0)" stroke-width="1" opacity="1" d="M 1653.5 272 L 1683.5 272 L 1699.5 275 L 1711.5 279 Q 1734.1 288.4 1749 305.5 Q 1767.7 325.8 1777 355.5 L 1783 385.5 L 1784 419.5 L 1783 420.5 L 1783 431.5 L 1782 432.5 L 1780 449.5 L 1771 476.5 Q 1759.3 501.8 1739.5 519 Q 1726.2 530.7 1708.5 538 L 1686.5 544 L 1665.5 545 L 1664.5 546 L 1663.5 545 L 1643.5 544 L 1626.5 539 Q 1605.1 529.4 1591 512.5 L 1589.5 510 Q 1586.1 509.1 1588 514.5 L 1589 515.5 L 1589 642 L 1524.5 642 L 1524 641.5 L 1524 278 L 1583 278 L 1583 311.5 L 1582 313.5 Q 1583.5 316.5 1585 313.5 L 1588 307.5 L 1603.5 292 Q 1612 284.5 1623.5 280 L 1634.5 276 L 1653.5 272 Z M 1647 327 L 1636 329 L 1628 332 L 1615 340 Q 1602 350 1595 365 L 1589 384 L 1588 398 L 1587 399 L 1587 420 L 1591 442 L 1600 462 L 1607 472 L 1621 483 L 1635 489 L 1645 491 L 1661 491 L 1671 489 Q 1685 484 1695 475 Q 1706 465 1712 450 L 1717 433 L 1718 415 L 1719 414 L 1718 393 L 1714 375 Q 1709 359 1699 348 Q 1690 337 1677 331 L 1661 327 L 1647 327 Z " /><path fill="rgb(0,0,0)" stroke="rgb(0,0,0)" stroke-width="1" opacity="1" d="M 1945 278 L 2017.5 278 L 2018 279.5 L 2070 420.5 L 2082 464 Q 2085.3 465.3 2084 460.5 L 2090 436.5 L 2140 287.5 L 2144.5 278 L 2213.5 278 L 2214 280.5 L 2095 586.5 Q 2084.2 611.2 2064.5 627 Q 2049.3 639.3 2027.5 645 L 2016.5 646 L 2015.5 647 L 1991.5 647 L 1970.5 642 L 1958.5 637 L 1949 630.5 L 1970.5 582 Q 1981.7 593.4 2004.5 593 L 2019.5 589 Q 2028.9 584.4 2035 576.5 L 2047 555.5 L 2055 534.5 L 1945 278 Z " /><path fill="rgb(161,161,161)" stroke="rgb(161,161,161)" stroke-width="1" opacity="1" d="M 914.5 174 L 1036 174.5 L 914.5 175 L 914.5 174 Z " /><path fill="rgb(161,161,161)" stroke="rgb(161,161,161)" stroke-width="1" opacity="1" d="M 1835.5 174 L 1898.5 174 L 1900 175.5 L 1899.5 457 L 1899 175 L 1835.5 175 L 1835 175.5 L 1835 462.5 L 1834 462.5 L 1834 175.5 L 1835.5 174 Z " /><path fill="rgb(161,161,161)" stroke="rgb(161,161,161)" stroke-width="1" opacity="1" d="M 1053.5 175 L 1060 175.5 L 1053.5 176 L 1053.5 175 Z " /><path fill="rgb(161,161,161)" stroke="rgb(161,161,161)" stroke-width="1" opacity="1" d="M 1067.5 176 L 1071 176.5 L 1067.5 177 L 1067.5 176 Z " /><path fill="rgb(161,161,161)" stroke="rgb(161,161,161)" stroke-width="1" opacity="1" d="M 1075.5 177 L 1078 177.5 L 1075.5 178 L 1075.5 177 Z " /><path fill="rgb(161,161,161)" stroke="rgb(161,161,161)" stroke-width="1" opacity="1" d="M 1081.5 178 L 1084 178.5 L 1081.5 179 L 1081.5 178 Z " /><path fill="rgb(161,161,161)" stroke="rgb(161,161,161)" stroke-width="1" opacity="1" d="M 1117.5 191 L 1118.5 193 L 1117.5 191 Z " /><path fill="rgb(161,161,161)" stroke="rgb(161,161,161)" stroke-width="1" opacity="1" d="M 1124.5 196 L 1125.5 198 L 1124.5 196 Z " /><path fill="rgb(161,161,161)" stroke="rgb(161,161,161)" stroke-width="1" opacity="1" d="M 1129.5 200 L 1139.5 211 L 1129.5 200 Z " /><path fill="rgb(161,161,161)" stroke="rgb(161,161,161)" stroke-width="1" opacity="1" d="M 1141.5 213 L 1143.5 216 L 1141.5 213 Z " /><path fill="rgb(161,161,161)" stroke="rgb(161,161,161)" stroke-width="1" opacity="1" d="M 981.5 231 L 1031 231.5 L 981.5 232 L 981.5 231 Z " /><path fill="rgb(161,161,161)" stroke="rgb(161,161,161)" stroke-width="1" opacity="1" d="M 1043.5 232 L 1048 232.5 L 1043.5 233 L 1043.5 232 Z " /><path fill="rgb(161,161,161)" stroke="rgb(161,161,161)" stroke-width="1" opacity="1" d="M 1052.5 233 L 1055 233.5 L 1052.5 234 L 1052.5 233 Z " /><path fill="rgb(161,161,161)" stroke="rgb(161,161,161)" stroke-width="1" opacity="1" d="M 1079.5 243 L 1080.5 245 L 1079.5 243 Z " /><path fill="rgb(161,161,161)" stroke="rgb(161,161,161)" stroke-width="1" opacity="1" d="M 1085.5 249 L 1087.5 252 L 1085.5 249 Z " /><path fill="rgb(161,161,161)" stroke="rgb(161,161,161)" stroke-width="1" opacity="1" d="M 1162.5 258 L 1163 260.5 L 1162 260.5 L 1162.5 258 Z " /><path fill="rgb(161,161,161)" stroke="rgb(161,161,161)" stroke-width="1" opacity="1" d="M 1163.5 264 L 1164 266.5 L 1163 266.5 L 1163.5 264 Z " /><path fill="rgb(161,161,161)" stroke="rgb(161,161,161)" stroke-width="1" opacity="1" d="M 1343.5 271 L 1365 271.5 L 1343.5 272 L 1343.5 271 Z " /><path fill="rgb(161,161,161)" stroke="rgb(161,161,161)" stroke-width="1" opacity="1" d="M 1658.5 271 L 1678 271.5 L 1658.5 272 L 1658.5 271 Z " /><path fill="rgb(161,161,161)" stroke="rgb(161,161,161)" stroke-width="1" opacity="1" d="M 1332.5 272 L 1337 272.5 L 1332.5 273 L 1332.5 272 Z " /><path fill="rgb(161,161,161)" stroke="rgb(161,161,161)" stroke-width="1" opacity="1" d="M 1371.5 272 L 1375 272.5 L 1371.5 273 L 1371.5 272 Z " /><path fill="rgb(161,161,161)" stroke="rgb(161,161,161)" stroke-width="1" opacity="1" d="M 1649.5 272 L 1653 272.5 L 1649.5 273 L 1649.5 272 Z " /><path fill="rgb(161,161,161)" stroke="rgb(161,161,161)" stroke-width="1" opacity="1" d="M 1684.5 272 L 1687 272.5 L 1684.5 273 L 1684.5 272 Z " /><path fill="rgb(161,161,161)" stroke="rgb(161,161,161)" stroke-width="1" opacity="1" d="M 1164.5 273 L 1165 283.5 L 1164 283.5 L 1164.5 273 Z " /><path fill="rgb(161,161,161)" stroke="rgb(161,161,161)" stroke-width="1" opacity="1" d="M 1326.5 273 L 1329 273.5 L 1326.5 274 L 1326.5 273 Z " /><path fill="rgb(161,161,161)" stroke="rgb(161,161,161)" stroke-width="1" opacity="1" d="M 1378.5 273 L 1381 273.5 L 1378.5 274 L 1378.5 273 Z " /><path fill="rgb(161,161,161)" stroke="rgb(161,161,161)" stroke-width="1" opacity="1" d="M 1690.5 273 L 1693 273.5 L 1690.5 274 L 1690.5 273 Z " /><path fill="rgb(161,161,161)" stroke="rgb(161,161,161)" stroke-width="1" opacity="1" d="M 1096.5 274 L 1097 276.5 L 1096 276.5 L 1096.5 274 Z " /><path fill="rgb(161,161,161)" stroke="rgb(161,161,161)" stroke-width="1" opacity="1" d="M 1321.5 274 L 1324 274.5 L 1321.5 275 L 1321.5 274 Z " /><path fill="rgb(161,161,161)" stroke="rgb(161,161,161)" stroke-width="1" opacity="1" d="M 1383.5 274 L 1386 274.5 L 1383.5 275 L 1383.5 274 Z " /><path fill="rgb(161,161,161)" stroke="rgb(161,161,161)" stroke-width="1" opacity="1" d="M 1695.5 274 L 1698 274.5 L 1695.5 275 L 1695.5 274 Z " /><path fill="rgb(161,161,161)" stroke="rgb(161,161,161)" stroke-width="1" opacity="1" d="M 1524.5 277 L 1584 277 L 1584 302.5 L 1583 302.5 L 1583 278 L 1524.5 278 L 1524.5 277 Z " /><path fill="rgb(161,161,161)" stroke="rgb(161,161,161)" stroke-width="1" opacity="1" d="M 1944 277 L 2018 277.5 L 1945.5 278 L 1944.5 279 L 1944 277 Z " /><path fill="rgb(161,161,161)" stroke="rgb(161,161,161)" stroke-width="1" opacity="1" d="M 2144.5 277 L 2214.5 277 L 2215 279.5 L 2214 279.5 L 2213.5 278 L 2144.5 278 L 2143 278.5 L 2144.5 277 Z " /><path fill="rgb(161,161,161)" stroke="rgb(161,161,161)" stroke-width="1" opacity="1" d="M 1097.5 283 L 1098 293.5 L 1097 293.5 L 1097.5 283 Z " /><path fill="rgb(161,161,161)" stroke="rgb(161,161,161)" stroke-width="1" opacity="1" d="M 1164.5 285 L 1165 294.5 L 1164 294.5 L 1164.5 285 Z " /><path fill="rgb(161,161,161)" stroke="rgb(161,161,161)" stroke-width="1" opacity="1" d="M 1288.5 286 L 1287.5 288 L 1288.5 286 Z " /><path fill="rgb(161,161,161)" stroke="rgb(161,161,161)" stroke-width="1" opacity="1" d="M 1726.5 286 L 1727.5 288 L 1726.5 286 Z " /><path fill="rgb(161,161,161)" stroke="rgb(161,161,161)" stroke-width="1" opacity="1" d="M 1609.5 287 L 1608.5 289 L 1609.5 287 Z " /><path fill="rgb(161,161,161)" stroke="rgb(161,161,161)" stroke-width="1" opacity="1" d="M 1729.5 288 L 1730.5 290 L 1729.5 288 Z " /><path fill="rgb(161,161,161)" stroke="rgb(161,161,161)" stroke-width="1" opacity="1" d="M 1606.5 289 L 1604.5 292 L 1606.5 289 Z " /><path fill="rgb(161,161,161)" stroke="rgb(161,161,161)" stroke-width="1" opacity="1" d="M 1732.5 290 L 1733.5 292 L 1732.5 290 Z " /><path fill="rgb(161,161,161)" stroke="rgb(161,161,161)" stroke-width="1" opacity="1" d="M 1278.5 292 L 1277.5 294 L 1278.5 292 Z " /><path fill="rgb(161,161,161)" stroke="rgb(161,161,161)" stroke-width="1" opacity="1" d="M 1424.5 292 L 1426.5 295 L 1424.5 292 Z " /><path fill="rgb(161,161,161)" stroke="rgb(161,161,161)" stroke-width="1" opacity="1" d="M 1600.5 294 L 1591.5 304 L 1600.5 294 Z " /><path fill="rgb(161,161,161)" stroke="rgb(161,161,161)" stroke-width="1" opacity="1" d="M 1737.5 294 L 1739.5 297 L 1737.5 294 Z " /><path fill="rgb(161,161,161)" stroke="rgb(161,161,161)" stroke-width="1" opacity="1" d="M 1274.5 295 L 1273.5 297 L 1274.5 295 Z " /><path fill="rgb(161,161,161)" stroke="rgb(161,161,161)" stroke-width="1" opacity="1" d="M 1430.5 297 L 1437.5 305 L 1430.5 297 Z " /><path fill="rgb(161,161,161)" stroke="rgb(161,161,161)" stroke-width="1" opacity="1" d="M 1270.5 298 L 1269.5 300 L 1270.5 298 Z " /><path fill="rgb(161,161,161)" stroke="rgb(161,161,161)" stroke-width="1" opacity="1" d="M 1096.5 299 L 1097 301.5 L 1096 301.5 L 1096.5 299 Z " /><path fill="rgb(161,161,161)" stroke="rgb(161,161,161)" stroke-width="1" opacity="1" d="M 1163.5 301 L 1164 303.5 L 1163 303.5 L 1163.5 301 Z " /><path fill="rgb(161,161,161)" stroke="rgb(161,161,161)" stroke-width="1" opacity="1" d="M 1265.5 302 L 1253.5 315 L 1265.5 302 Z " /><path fill="rgb(161,161,161)" stroke="rgb(161,161,161)" stroke-width="1" opacity="1" d="M 1749.5 306 L 1752.5 310 L 1749.5 306 Z " /><path fill="rgb(161,161,161)" stroke="rgb(161,161,161)" stroke-width="1" opacity="1" d="M 1587.5 308 L 1586.5 310 L 1587.5 308 Z " /><path fill="rgb(161,161,161)" stroke="rgb(161,161,161)" stroke-width="1" opacity="1" d="M 1441.5 309 L 1443.5 312 L 1441.5 309 Z " /><path fill="rgb(161,161,161)" stroke="rgb(161,161,161)" stroke-width="1" opacity="1" d="M 1582.5 312 L 1583.5 314 L 1585 313.5 Q 1583.5 316.5 1582 313.5 L 1582.5 312 Z " /><path fill="rgb(161,161,161)" stroke="rgb(161,161,161)" stroke-width="1" opacity="1" d="M 1754.5 312 L 1756.5 315 L 1754.5 312 Z " /><path fill="rgb(161,161,161)" stroke="rgb(161,161,161)" stroke-width="1" opacity="1" d="M 1445.5 314 L 1446.5 316 L 1445.5 314 Z " /><path fill="rgb(161,161,161)" stroke="rgb(161,161,161)" stroke-width="1" opacity="1" d="M 1250.5 318 L 1248.5 321 L 1250.5 318 Z " /><path fill="rgb(161,161,161)" stroke="rgb(161,161,161)" stroke-width="1" opacity="1" d="M 1351.5 321 L 1354 321.5 L 1351.5 322 L 1351.5 321 Z " /><path fill="rgb(161,161,161)" stroke="rgb(161,161,161)" stroke-width="1" opacity="1" d="M 1340.5 322 L 1343 322.5 L 1340.5 323 L 1340.5 322 Z " /><path fill="rgb(161,161,161)" stroke="rgb(161,161,161)" stroke-width="1" opacity="1" d="M 1361.5 322 L 1364 322.5 L 1361.5 323 L 1361.5 322 Z " /><path fill="rgb(161,161,161)" stroke="rgb(161,161,161)" stroke-width="1" opacity="1" d="M 1246.5 323 L 1245.5 325 L 1246.5 323 Z " /><path fill="rgb(161,161,161)" stroke="rgb(161,161,161)" stroke-width="1" opacity="1" d="M 1451.5 323 L 1452.5 325 L 1451.5 323 Z " /><path fill="rgb(161,161,161)" stroke="rgb(161,161,161)" stroke-width="1" opacity="1" d="M 1087.5 324 L 1086.5 326 L 1087.5 324 Z " /><path fill="rgb(161,161,161)" stroke="rgb(161,161,161)" stroke-width="1" opacity="1" d="M 1763.5 325 L 1764.5 327 L 1763.5 325 Z " /><path fill="rgb(161,161,161)" stroke="rgb(161,161,161)" stroke-width="1" opacity="1" d="M 1244.5 326 L 1243.5 328 L 1244.5 326 Z " /><path fill="rgb(161,161,161)" stroke="rgb(161,161,161)" stroke-width="1" opacity="1" d="M 1646.5 327 L 1661 327.5 L 1646.5 328 L 1646.5 327 Z " /><path fill="rgb(161,161,161)" stroke="rgb(161,161,161)" stroke-width="1" opacity="1" d="M 1084.5 328 L 1080.5 333 L 1084.5 328 Z " /><path fill="rgb(161,161,161)" stroke="rgb(161,161,161)" stroke-width="1" opacity="1" d="M 1379.5 328 L 1380.5 330 L 1379.5 328 Z " /><path fill="rgb(161,161,161)" stroke="rgb(161,161,161)" stroke-width="1" opacity="1" d="M 1639.5 328 L 1642 328.5 L 1639.5 329 L 1639.5 328 Z " /><path fill="rgb(161,161,161)" stroke="rgb(161,161,161)" stroke-width="1" opacity="1" d="M 1664.5 328 L 1667 328.5 L 1664.5 329 L 1664.5 328 Z " /><path fill="rgb(161,161,161)" stroke="rgb(161,161,161)" stroke-width="1" opacity="1" d="M 1242.5 329 L 1241.5 331 L 1242.5 329 Z " /><path fill="rgb(161,161,161)" stroke="rgb(161,161,161)" stroke-width="1" opacity="1" d="M 1382.5 330 L 1383.5 332 L 1382.5 330 Z " /><path fill="rgb(161,161,161)" stroke="rgb(161,161,161)" stroke-width="1" opacity="1" d="M 1239.5 334 L 1238.5 336 L 1239.5 334 Z " /><path fill="rgb(161,161,161)" stroke="rgb(161,161,161)" stroke-width="1" opacity="1" d="M 1387.5 334 L 1391.5 339 L 1387.5 334 Z " /><path fill="rgb(161,161,161)" stroke="rgb(161,161,161)" stroke-width="1" opacity="1" d="M 1311.5 335 L 1304.5 343 L 1311.5 335 Z " /><path fill="rgb(161,161,161)" stroke="rgb(161,161,161)" stroke-width="1" opacity="1" d="M 1621.5 335 L 1620.5 337 L 1621.5 335 Z " /><path fill="rgb(161,161,161)" stroke="rgb(161,161,161)" stroke-width="1" opacity="1" d="M 1684.5 335 L 1685.5 337 L 1684.5 335 Z " /><path fill="rgb(161,161,161)" stroke="rgb(161,161,161)" stroke-width="1" opacity="1" d="M 1618.5 337 L 1617.5 339 L 1618.5 337 Z " /><path fill="rgb(161,161,161)" stroke="rgb(161,161,161)" stroke-width="1" opacity="1" d="M 1687.5 337 L 1688.5 339 L 1687.5 337 Z " /><path fill="rgb(161,161,161)" stroke="rgb(161,161,161)" stroke-width="1" opacity="1" d="M 1614.5 340 L 1612.5 343 L 1614.5 340 Z " /><path fill="rgb(161,161,161)" stroke="rgb(161,161,161)" stroke-width="1" opacity="1" d="M 1150.5 341 L 1149.5 343 L 1150.5 341 Z " /><path fill="rgb(161,161,161)" stroke="rgb(161,161,161)" stroke-width="1" opacity="1" d="M 1393.5 341 L 1394.5 343 L 1393.5 341 Z " /><path fill="rgb(161,161,161)" stroke="rgb(161,161,161)" stroke-width="1" opacity="1" d="M 1692.5 341 L 1698.5 348 L 1692.5 341 Z " /><path fill="rgb(161,161,161)" stroke="rgb(161,161,161)" stroke-width="1" opacity="1" d="M 1053.5 344 L 1056 344.5 L 1053.5 345 L 1053.5 344 Z " /><path fill="rgb(161,161,161)" stroke="rgb(161,161,161)" stroke-width="1" opacity="1" d="M 1043.5 345 L 1050 345.5 L 1043.5 346 L 1043.5 345 Z " /><path fill="rgb(161,161,161)" stroke="rgb(161,161,161)" stroke-width="1" opacity="1" d="M 1302.5 345 L 1301.5 347 L 1302.5 345 Z " /><path fill="rgb(161,161,161)" stroke="rgb(161,161,161)" stroke-width="1" opacity="1" d="M 1147.5 346 L 1146.5 348 L 1147.5 346 Z " /><path fill="rgb(161,161,161)" stroke="rgb(161,161,161)" stroke-width="1" opacity="1" d="M 1605.5 349 L 1603.5 352 L 1605.5 349 Z " /><path fill="rgb(161,161,161)" stroke="rgb(161,161,161)" stroke-width="1" opacity="1" d="M 1701.5 351 L 1702.5 353 L 1701.5 351 Z " /><path fill="rgb(161,161,161)" stroke="rgb(161,161,161)" stroke-width="1" opacity="1" d="M 1143.5 352 L 1142.5 354 L 1143.5 352 Z " /><path fill="rgb(161,161,161)" stroke="rgb(161,161,161)" stroke-width="1" opacity="1" d="M 1601.5 354 L 1600.5 356 L 1601.5 354 Z " /><path fill="rgb(161,161,161)" stroke="rgb(161,161,161)" stroke-width="1" opacity="1" d="M 1703.5 354 L 1704.5 356 L 1703.5 354 Z " /><path fill="rgb(161,161,161)" stroke="rgb(161,161,161)" stroke-width="1" opacity="1" d="M 1140.5 356 L 1139.5 358 L 1140.5 356 Z " /><path fill="rgb(161,161,161)" stroke="rgb(161,161,161)" stroke-width="1" opacity="1" d="M 1402.5 359 L 1403 361.5 L 1402 361.5 L 1402.5 359 Z " /><path fill="rgb(161,161,161)" stroke="rgb(161,161,161)" stroke-width="1" opacity="1" d="M 1135.5 362 L 1130.5 368 L 1135.5 362 Z " /><path fill="rgb(161,161,161)" stroke="rgb(161,161,161)" stroke-width="1" opacity="1" d="M 1403.5 364 L 1404 366.5 L 1403 366.5 L 1403.5 364 Z " /><path fill="rgb(161,161,161)" stroke="rgb(161,161,161)" stroke-width="1" opacity="1" d="M 1467.5 364 L 1468 366.5 L 1467 366.5 L 1467.5 364 Z " /><path fill="rgb(161,161,161)" stroke="rgb(161,161,161)" stroke-width="1" opacity="1" d="M 1126.5 370 L 1124.5 373 L 1126.5 370 Z " /><path fill="rgb(161,161,161)" stroke="rgb(161,161,161)" stroke-width="1" opacity="1" d="M 1468.5 370 L 1469 372.5 L 1468 372.5 L 1468.5 370 Z " /><path fill="rgb(161,161,161)" stroke="rgb(161,161,161)" stroke-width="1" opacity="1" d="M 1122.5 373 L 1121.5 375 L 1122.5 373 Z " /><path fill="rgb(161,161,161)" stroke="rgb(161,161,161)" stroke-width="1" opacity="1" d="M 1404.5 373 L 1405 375.5 L 1404 375.5 L 1404.5 373 Z " /><path fill="rgb(161,161,161)" stroke="rgb(161,161,161)" stroke-width="1" opacity="1" d="M 1781.5 374 L 1782 376.5 L 1781 376.5 L 1781.5 374 Z " /><path fill="rgb(161,161,161)" stroke="rgb(161,161,161)" stroke-width="1" opacity="1" d="M 1116.5 377 L 1115.5 379 L 1116.5 377 Z " /><path fill="rgb(161,161,161)" stroke="rgb(161,161,161)" stroke-width="1" opacity="1" d="M 1223.5 377 L 1224 379.5 L 1223 379.5 L 1223.5 377 Z " /><path fill="rgb(161,161,161)" stroke="rgb(161,161,161)" stroke-width="1" opacity="1" d="M 1469.5 377 L 1470 382.5 L 1469 382.5 L 1469.5 377 Z " /><path fill="rgb(161,161,161)" stroke="rgb(161,161,161)" stroke-width="1" opacity="1" d="M 1782.5 381 L 1783 384.5 L 1782 384.5 L 1782.5 381 Z " /><path fill="rgb(161,161,161)" stroke="rgb(161,161,161)" stroke-width="1" opacity="1" d="M 1222.5 383 L 1223 386.5 L 1222 386.5 L 1222.5 383 Z " /><path fill="rgb(161,161,161)" stroke="rgb(161,161,161)" stroke-width="1" opacity="1" d="M 1589.5 383 L 1590 385.5 L 1589 385.5 L 1589.5 383 Z " /><path fill="rgb(161,161,161)" stroke="rgb(161,161,161)" stroke-width="1" opacity="1" d="M 1716.5 386 L 1717 388.5 L 1716 388.5 L 1716.5 386 Z " /><path fill="rgb(161,161,161)" stroke="rgb(161,161,161)" stroke-width="1" opacity="1" d="M 1106.5 389 L 1107.5 391 L 1106.5 389 Z " /><path fill="rgb(161,161,161)" stroke="rgb(161,161,161)" stroke-width="1" opacity="1" d="M 1588.5 389 L 1589 391.5 L 1588 391.5 L 1588.5 389 Z " /><path fill="rgb(161,161,161)" stroke="rgb(161,161,161)" stroke-width="1" opacity="1" d="M 1783.5 390 L 1784 396.5 L 1783 396.5 L 1783.5 390 Z " /><path fill="rgb(161,161,161)" stroke="rgb(161,161,161)" stroke-width="1" opacity="1" d="M 1108.5 392 L 1109.5 394 L 1108.5 392 Z " /><path fill="rgb(161,161,161)" stroke="rgb(161,161,161)" stroke-width="1" opacity="1" d="M 1221.5 392 L 1222 397.5 L 1221 397.5 L 1221.5 392 Z " /><path fill="rgb(161,161,161)" stroke="rgb(161,161,161)" stroke-width="1" opacity="1" d="M 1717.5 392 L 1718 396.5 L 1717 396.5 L 1717.5 392 Z " /><path fill="rgb(161,161,161)" stroke="rgb(161,161,161)" stroke-width="1" opacity="1" d="M 1110.5 395 L 1111.5 397 L 1110.5 395 Z " /><path fill="rgb(161,161,161)" stroke="rgb(161,161,161)" stroke-width="1" opacity="1" d="M 1587.5 398 L 1588 419.5 L 1587 419.5 L 1587.5 398 Z " /><path fill="rgb(161,161,161)" stroke="rgb(161,161,161)" stroke-width="1" opacity="1" d="M 1113.5 400 L 1114.5 402 L 1113.5 400 Z " /><path fill="rgb(161,161,161)" stroke="rgb(161,161,161)" stroke-width="1" opacity="1" d="M 980.5 403 L 1043.5 403 L 1045 404.5 L 1043.5 404 L 980.5 404 L 980.5 403 Z " /><path fill="rgb(161,161,161)" stroke="rgb(161,161,161)" stroke-width="1" opacity="1" d="M 1469.5 403 L 1470 410.5 L 1469 410.5 L 1469.5 403 Z " /><path fill="rgb(161,161,161)" stroke="rgb(161,161,161)" stroke-width="1" opacity="1" d="M 1718.5 407 L 1719 413.5 L 1718 413.5 L 1718.5 407 Z " /><path fill="rgb(161,161,161)" stroke="rgb(161,161,161)" stroke-width="1" opacity="1" d="M 1123.5 418 L 1124.5 420 L 1123.5 418 Z " /><path fill="rgb(161,161,161)" stroke="rgb(161,161,161)" stroke-width="1" opacity="1" d="M 1221.5 418 L 1222 423.5 L 1221 423.5 L 1221.5 418 Z " /><path fill="rgb(161,161,161)" stroke="rgb(161,161,161)" stroke-width="1" opacity="1" d="M 1783.5 420 L 1784 426.5 L 1783 426.5 L 1783.5 420 Z " /><path fill="rgb(161,161,161)" stroke="rgb(161,161,161)" stroke-width="1" opacity="1" d="M 1717.5 422 L 1718 425.5 L 1717 425.5 L 1717.5 422 Z " /><path fill="rgb(161,161,161)" stroke="rgb(161,161,161)" stroke-width="1" opacity="1" d="M 1288.5 425 L 1289 427.5 L 1288 427.5 L 1288.5 425 Z " /><path fill="rgb(161,161,161)" stroke="rgb(161,161,161)" stroke-width="1" opacity="1" d="M 1588.5 425 L 1589 427.5 L 1588 427.5 L 1588.5 425 Z " /><path fill="rgb(161,161,161)" stroke="rgb(161,161,161)" stroke-width="1" opacity="1" d="M 1222.5 429 L 1223 431.5 L 1222 431.5 L 1222.5 429 Z " /><path fill="rgb(161,161,161)" stroke="rgb(161,161,161)" stroke-width="1" opacity="1" d="M 1716.5 430 L 1717 432.5 L 1716 432.5 L 1716.5 430 Z " /><path fill="rgb(161,161,161)" stroke="rgb(161,161,161)" stroke-width="1" opacity="1" d="M 1589.5 431 L 1590 433.5 L 1589 433.5 L 1589.5 431 Z " /><path fill="rgb(161,161,161)" stroke="rgb(161,161,161)" stroke-width="1" opacity="1" d="M 1782.5 432 L 1783 435.5 L 1782 435.5 L 1782.5 432 Z " /><path fill="rgb(161,161,161)" stroke="rgb(161,161,161)" stroke-width="1" opacity="1" d="M 1781.5 439 L 1782 441.5 L 1781 441.5 L 1781.5 439 Z " /><path fill="rgb(161,161,161)" stroke="rgb(161,161,161)" stroke-width="1" opacity="1" d="M 1063.5 440 L 1064.5 442 L 1063.5 440 Z " /><path fill="rgb(161,161,161)" stroke="rgb(161,161,161)" stroke-width="1" opacity="1" d="M 1139.5 447 L 1140.5 449 L 1139.5 447 Z " /><path fill="rgb(161,161,161)" stroke="rgb(161,161,161)" stroke-width="1" opacity="1" d="M 1071.5 455 L 1072.5 457 L 1071.5 455 Z " /><path fill="rgb(161,161,161)" stroke="rgb(161,161,161)" stroke-width="1" opacity="1" d="M 1706.5 459 L 1705.5 461 L 1706.5 459 Z " /><path fill="rgb(161,161,161)" stroke="rgb(161,161,161)" stroke-width="1" opacity="1" d="M 1302.5 461 L 1303.5 463 L 1302.5 461 Z " /><path fill="rgb(161,161,161)" stroke="rgb(161,161,161)" stroke-width="1" opacity="1" d="M 1440.5 462 L 1439.5 464 L 1440.5 462 Z " /><path fill="rgb(161,161,161)" stroke="rgb(161,161,161)" stroke-width="1" opacity="1" d="M 1704.5 462 L 1703.5 464 L 1704.5 462 Z " /><path fill="rgb(161,161,161)" stroke="rgb(161,161,161)" stroke-width="1" opacity="1" d="M 1702.5 465 L 1700.5 468 L 1702.5 465 Z " /><path fill="rgb(161,161,161)" stroke="rgb(161,161,161)" stroke-width="1" opacity="1" d="M 1435.5 466 L 1434.5 468 L 1435.5 466 Z " /><path fill="rgb(161,161,161)" stroke="rgb(161,161,161)" stroke-width="1" opacity="1" d="M 1150.5 467 L 1151.5 469 L 1150.5 467 Z " /><path fill="rgb(161,161,161)" stroke="rgb(161,161,161)" stroke-width="1" opacity="1" d="M 1604.5 467 L 1605.5 469 L 1604.5 467 Z " /><path fill="rgb(161,161,161)" stroke="rgb(161,161,161)" stroke-width="1" opacity="1" d="M 1445.5 468 L 1446.5 470 L 1445.5 468 Z " /><path fill="rgb(161,161,161)" stroke="rgb(161,161,161)" stroke-width="1" opacity="1" d="M 1607.5 471 L 1613.5 478 L 1607.5 471 Z " /><path fill="rgb(161,161,161)" stroke="rgb(161,161,161)" stroke-width="1" opacity="1" d="M 1697.5 471 L 1694.5 475 L 1697.5 471 Z " /><path fill="rgb(161,161,161)" stroke="rgb(161,161,161)" stroke-width="1" opacity="1" d="M 1313.5 472 L 1314.5 474 L 1313.5 472 Z " /><path fill="rgb(161,161,161)" stroke="rgb(161,161,161)" stroke-width="1" opacity="1" d="M 1835.5 472 L 1836 476.5 L 1835 476.5 L 1835.5 472 Z " /><path fill="rgb(161,161,161)" stroke="rgb(161,161,161)" stroke-width="1" opacity="1" d="M 1903.5 473 L 1904.5 475 L 1903.5 473 Z " /><path fill="rgb(161,161,161)" stroke="rgb(161,161,161)" stroke-width="1" opacity="1" d="M 1317.5 475 L 1318.5 477 L 1317.5 475 Z " /><path fill="rgb(161,161,161)" stroke="rgb(161,161,161)" stroke-width="1" opacity="1" d="M 1905.5 476 L 1907.5 479 L 1905.5 476 Z " /><path fill="rgb(161,161,161)" stroke="rgb(161,161,161)" stroke-width="1" opacity="1" d="M 1320.5 477 L 1321.5 479 L 1320.5 477 Z " /><path fill="rgb(161,161,161)" stroke="rgb(161,161,161)" stroke-width="1" opacity="1" d="M 1689.5 478 L 1688.5 480 L 1689.5 478 Z " /><path fill="rgb(161,161,161)" stroke="rgb(161,161,161)" stroke-width="1" opacity="1" d="M 1616.5 479 L 1617.5 481 L 1616.5 479 Z " /><path fill="rgb(161,161,161)" stroke="rgb(161,161,161)" stroke-width="1" opacity="1" d="M 1452.5 481 L 1453.5 483 L 1452.5 481 Z " /><path fill="rgb(161,161,161)" stroke="rgb(161,161,161)" stroke-width="1" opacity="1" d="M 1619.5 481 L 1620.5 483 L 1619.5 481 Z " /><path fill="rgb(161,161,161)" stroke="rgb(161,161,161)" stroke-width="1" opacity="1" d="M 1836.5 481 L 1837 483.5 L 1836 483.5 L 1836.5 481 Z " /><path fill="rgb(161,161,161)" stroke="rgb(161,161,161)" stroke-width="1" opacity="1" d="M 1241.5 483 L 1242.5 485 L 1241.5 483 Z " /><path fill="rgb(161,161,161)" stroke="rgb(161,161,161)" stroke-width="1" opacity="1" d="M 1918.5 483 L 1921 483.5 L 1918.5 484 L 1918.5 483 Z " /><path fill="rgb(161,161,161)" stroke="rgb(161,161,161)" stroke-width="1" opacity="1" d="M 1933.5 483 L 1936 483.5 L 1933.5 484 L 1933.5 483 Z " /><path fill="rgb(161,161,161)" stroke="rgb(161,161,161)" stroke-width="1" opacity="1" d="M 1243.5 486 L 1244.5 488 L 1243.5 486 Z " /><path fill="rgb(161,161,161)" stroke="rgb(161,161,161)" stroke-width="1" opacity="1" d="M 1088.5 487 L 1089.5 489 L 1088.5 487 Z " /><path fill="rgb(161,161,161)" stroke="rgb(161,161,161)" stroke-width="1" opacity="1" d="M 1388.5 487 L 1391 487.5 L 1388.5 488 L 1388.5 487 Z " /><path fill="rgb(161,161,161)" stroke="rgb(161,161,161)" stroke-width="1" opacity="1" d="M 1245.5 489 L 1246.5 491 L 1245.5 489 Z " /><path fill="rgb(161,161,161)" stroke="rgb(161,161,161)" stroke-width="1" opacity="1" d="M 1352.5 489 L 1357 489.5 L 1352.5 490 L 1352.5 489 Z " /><path fill="rgb(161,161,161)" stroke="rgb(161,161,161)" stroke-width="1" opacity="1" d="M 1376.5 489 L 1380 489.5 L 1376.5 490 L 1376.5 489 Z " /><path fill="rgb(161,161,161)" stroke="rgb(161,161,161)" stroke-width="1" opacity="1" d="M 1664.5 489 L 1667 489.5 L 1664.5 490 L 1664.5 489 Z " /><path fill="rgb(161,161,161)" stroke="rgb(161,161,161)" stroke-width="1" opacity="1" d="M 1365.5 490 L 1368 490.5 L 1365.5 491 L 1365.5 490 Z " /><path fill="rgb(161,161,161)" stroke="rgb(161,161,161)" stroke-width="1" opacity="1" d="M 1644.5 490 L 1651 490.5 L 1644.5 491 L 1644.5 490 Z " /><path fill="rgb(161,161,161)" stroke="rgb(161,161,161)" stroke-width="1" opacity="1" d="M 1654.5 490 L 1661 490.5 L 1654.5 491 L 1654.5 490 Z " /><path fill="rgb(161,161,161)" stroke="rgb(161,161,161)" stroke-width="1" opacity="1" d="M 1763.5 490 L 1762.5 492 L 1763.5 490 Z " /><path fill="rgb(161,161,161)" stroke="rgb(161,161,161)" stroke-width="1" opacity="1" d="M 1248.5 493 L 1249.5 495 L 1248.5 493 Z " /><path fill="rgb(161,161,161)" stroke="rgb(161,161,161)" stroke-width="1" opacity="1" d="M 1459.5 494 L 1460.5 496 L 1459.5 494 Z " /><path fill="rgb(161,161,161)" stroke="rgb(161,161,161)" stroke-width="1" opacity="1" d="M 1166.5 496 L 1167.5 498 L 1166.5 496 Z " /><path fill="rgb(161,161,161)" stroke="rgb(161,161,161)" stroke-width="1" opacity="1" d="M 1759.5 496 L 1758.5 498 L 1759.5 496 Z " /><path fill="rgb(161,161,161)" stroke="rgb(161,161,161)" stroke-width="1" opacity="1" d="M 1252.5 498 L 1254.5 501 L 1252.5 498 Z " /><path fill="rgb(161,161,161)" stroke="rgb(161,161,161)" stroke-width="1" opacity="1" d="M 1757.5 499 L 1755.5 502 L 1757.5 499 Z " /><path fill="rgb(161,161,161)" stroke="rgb(161,161,161)" stroke-width="1" opacity="1" d="M 1096.5 502 L 1097.5 504 L 1096.5 502 Z " /><path fill="rgb(161,161,161)" stroke="rgb(161,161,161)" stroke-width="1" opacity="1" d="M 1753.5 504 L 1751.5 507 L 1753.5 504 Z " /><path fill="rgb(161,161,161)" stroke="rgb(161,161,161)" stroke-width="1" opacity="1" d="M 1465.5 509 L 1462.5 513 L 1465.5 509 Z " /><path fill="rgb(161,161,161)" stroke="rgb(161,161,161)" stroke-width="1" opacity="1" d="M 1588.5 510 L 1589 514.5 L 1588 514.5 L 1588.5 510 Z " /><path fill="rgb(161,161,161)" stroke="rgb(161,161,161)" stroke-width="1" opacity="1" d="M 1266.5 512 L 1269.5 516 L 1266.5 512 Z " /><path fill="rgb(161,161,161)" stroke="rgb(161,161,161)" stroke-width="1" opacity="1" d="M 1846.5 512 L 1847.5 514 L 1846.5 512 Z " /><path fill="rgb(161,161,161)" stroke="rgb(161,161,161)" stroke-width="1" opacity="1" d="M 1459.5 514 L 1458.5 516 L 1459.5 514 Z " /><path fill="rgb(161,161,161)" stroke="rgb(161,161,161)" stroke-width="1" opacity="1" d="M 1592.5 514 L 1601.5 524 L 1592.5 514 Z " /><path fill="rgb(161,161,161)" stroke="rgb(161,161,161)" stroke-width="1" opacity="1" d="M 1848.5 515 L 1849.5 517 L 1848.5 515 Z " /><path fill="rgb(161,161,161)" stroke="rgb(161,161,161)" stroke-width="1" opacity="1" d="M 1177.5 516 L 1178.5 518 L 1177.5 516 Z " /><path fill="rgb(161,161,161)" stroke="rgb(161,161,161)" stroke-width="1" opacity="1" d="M 1456.5 516 L 1455.5 518 L 1456.5 516 Z " /><path fill="rgb(161,161,161)" stroke="rgb(161,161,161)" stroke-width="1" opacity="1" d="M 1272.5 517 L 1274.5 520 L 1272.5 517 Z " /><path fill="rgb(161,161,161)" stroke="rgb(161,161,161)" stroke-width="1" opacity="1" d="M 1850.5 518 L 1858.5 527 L 1850.5 518 Z " /><path fill="rgb(161,161,161)" stroke="rgb(161,161,161)" stroke-width="1" opacity="1" d="M 1738.5 519 L 1736.5 522 L 1738.5 519 Z " /><path fill="rgb(161,161,161)" stroke="rgb(161,161,161)" stroke-width="1" opacity="1" d="M 1276.5 520 L 1277.5 522 L 1276.5 520 Z " /><path fill="rgb(161,161,161)" stroke="rgb(161,161,161)" stroke-width="1" opacity="1" d="M 1448.5 521 L 1447.5 523 L 1448.5 521 Z " /><path fill="rgb(161,161,161)" stroke="rgb(161,161,161)" stroke-width="1" opacity="1" d="M 1733.5 523 L 1732.5 525 L 1733.5 523 Z " /><path fill="rgb(161,161,161)" stroke="rgb(161,161,161)" stroke-width="1" opacity="1" d="M 1282.5 524 L 1283.5 526 L 1282.5 524 Z " /><path fill="rgb(161,161,161)" stroke="rgb(161,161,161)" stroke-width="1" opacity="1" d="M 1604.5 525 L 1605.5 527 L 1604.5 525 Z " /><path fill="rgb(161,161,161)" stroke="rgb(161,161,161)" stroke-width="1" opacity="1" d="M 1729.5 526 L 1728.5 528 L 1729.5 526 Z " /><path fill="rgb(161,161,161)" stroke="rgb(161,161,161)" stroke-width="1" opacity="1" d="M 1287.5 527 L 1288.5 529 L 1287.5 527 Z " /><path fill="rgb(161,161,161)" stroke="rgb(161,161,161)" stroke-width="1" opacity="1" d="M 1726.5 528 L 1725.5 530 L 1726.5 528 Z " /><path fill="rgb(161,161,161)" stroke="rgb(161,161,161)" stroke-width="1" opacity="1" d="M 1863.5 529 L 1864.5 531 L 1863.5 529 Z " /><path fill="rgb(161,161,161)" stroke="rgb(161,161,161)" stroke-width="1" opacity="1" d="M 1589.5 530 L 1590 641.5 L 1588.5 643 L 1524.5 643 L 1524.5 642 L 1589 642 L 1589.5 530 Z " /><path fill="rgb(161,161,161)" stroke="rgb(161,161,161)" stroke-width="1" opacity="1" d="M 1611.5 530 L 1612.5 532 L 1611.5 530 Z " /><path fill="rgb(161,161,161)" stroke="rgb(161,161,161)" stroke-width="1" opacity="1" d="M 1614.5 532 L 1615.5 534 L 1614.5 532 Z " /><path fill="rgb(161,161,161)" stroke="rgb(161,161,161)" stroke-width="1" opacity="1" d="M 2054.5 534 L 2055 536.5 L 2054 536.5 L 2054.5 534 Z " /><path fill="rgb(161,161,161)" stroke="rgb(161,161,161)" stroke-width="1" opacity="1" d="M 914.5 539 L 980 539.5 L 914.5 540 L 914.5 539 Z " /><path fill="rgb(161,161,161)" stroke="rgb(161,161,161)" stroke-width="1" opacity="1" d="M 1116.5 539 L 1190 539.5 L 1116.5 540 L 1116.5 539 Z " /><path fill="rgb(161,161,161)" stroke="rgb(161,161,161)" stroke-width="1" opacity="1" d="M 1891.5 540 L 1894 540.5 L 1891.5 541 L 1891.5 540 Z " /><path fill="rgb(161,161,161)" stroke="rgb(161,161,161)" stroke-width="1" opacity="1" d="M 1898.5 541 L 1903 541.5 L 1898.5 542 L 1898.5 541 Z " /><path fill="rgb(161,161,161)" stroke="rgb(161,161,161)" stroke-width="1" opacity="1" d="M 1926.5 541 L 1931 541.5 L 1926.5 542 L 1926.5 541 Z " /><path fill="rgb(161,161,161)" stroke="rgb(161,161,161)" stroke-width="1" opacity="1" d="M 1692.5 542 L 1695 542.5 L 1692.5 543 L 1692.5 542 Z " /><path fill="rgb(161,161,161)" stroke="rgb(161,161,161)" stroke-width="1" opacity="1" d="M 1331.5 543 L 1335 543.5 L 1331.5 544 L 1331.5 543 Z " /><path fill="rgb(161,161,161)" stroke="rgb(161,161,161)" stroke-width="1" opacity="1" d="M 1387.5 543 L 1390 543.5 L 1387.5 544 L 1387.5 543 Z " /><path fill="rgb(161,161,161)" stroke="rgb(161,161,161)" stroke-width="1" opacity="1" d="M 1687.5 543 L 1690 543.5 L 1687.5 544 L 1687.5 543 Z " /><path fill="rgb(161,161,161)" stroke="rgb(161,161,161)" stroke-width="1" opacity="1" d="M 1338.5 544 L 1342 544.5 L 1338.5 545 L 1338.5 544 Z " /><path fill="rgb(161,161,161)" stroke="rgb(161,161,161)" stroke-width="1" opacity="1" d="M 1380.5 544 L 1383 544.5 L 1380.5 545 L 1380.5 544 Z " /><path fill="rgb(161,161,161)" stroke="rgb(161,161,161)" stroke-width="1" opacity="1" d="M 1646.5 544 L 1649 544.5 L 1646.5 545 L 1646.5 544 Z " /><path fill="rgb(161,161,161)" stroke="rgb(161,161,161)" stroke-width="1" opacity="1" d="M 1681.5 544 L 1684 544.5 L 1681.5 545 L 1681.5 544 Z " /><path fill="rgb(161,161,161)" stroke="rgb(161,161,161)" stroke-width="1" opacity="1" d="M 1348.5 545 L 1361 545.5 L 1348.5 546 L 1348.5 545 Z " /><path fill="rgb(161,161,161)" stroke="rgb(161,161,161)" stroke-width="1" opacity="1" d="M 1363.5 545 L 1374 545.5 L 1363.5 546 L 1363.5 545 Z " /><path fill="rgb(161,161,161)" stroke="rgb(161,161,161)" stroke-width="1" opacity="1" d="M 1654.5 545 L 1664 545.5 L 1654.5 546 L 1654.5 545 Z " /><path fill="rgb(161,161,161)" stroke="rgb(161,161,161)" stroke-width="1" opacity="1" d="M 1665.5 545 L 1676 545.5 L 1665.5 546 L 1665.5 545 Z " /><path fill="rgb(161,161,161)" stroke="rgb(161,161,161)" stroke-width="1" opacity="1" d="M 2039.5 569 L 2038.5 571 L 2039.5 569 Z " /><path fill="rgb(161,161,161)" stroke="rgb(161,161,161)" stroke-width="1" opacity="1" d="M 2037.5 572 L 2036.5 574 L 2037.5 572 Z " /><path fill="rgb(161,161,161)" stroke="rgb(161,161,161)" stroke-width="1" opacity="1" d="M 2034.5 576 L 2027.5 584 L 2034.5 576 Z " /><path fill="rgb(161,161,161)" stroke="rgb(161,161,161)" stroke-width="1" opacity="1" d="M 2025.5 584 L 2024.5 586 L 2025.5 584 Z " /><path fill="rgb(161,161,161)" stroke="rgb(161,161,161)" stroke-width="1" opacity="1" d="M 1995.5 592 L 2005 592.5 L 1995.5 593 L 1995.5 592 Z " /><path fill="rgb(161,161,161)" stroke="rgb(161,161,161)" stroke-width="1" opacity="1" d="M 2081.5 609 L 2080.5 611 L 2081.5 609 Z " /><path fill="rgb(161,161,161)" stroke="rgb(161,161,161)" stroke-width="1" opacity="1" d="M 2077.5 614 L 2067.5 625 L 2077.5 614 Z " /><path fill="rgb(161,161,161)" stroke="rgb(161,161,161)" stroke-width="1" opacity="1" d="M 2063.5 627 L 2062.5 629 L 2063.5 627 Z " /><path fill="rgb(161,161,161)" stroke="rgb(161,161,161)" stroke-width="1" opacity="1" d="M 1950.5 631 L 1951.5 633 L 1950.5 631 Z " /><path fill="rgb(161,161,161)" stroke="rgb(161,161,161)" stroke-width="1" opacity="1" d="M 2054.5 633 L 2053.5 635 L 2054.5 633 Z " /><path fill="rgb(161,161,161)" stroke="rgb(161,161,161)" stroke-width="1" opacity="1" d="M 1956.5 635 L 1957.5 637 L 1956.5 635 Z " /><path fill="rgb(161,161,161)" stroke="rgb(161,161,161)" stroke-width="1" opacity="1" d="M 1988.5 646 L 1991 646.5 L 1988.5 647 L 1988.5 646 Z " /><path fill="rgb(161,161,161)" stroke="rgb(161,161,161)" stroke-width="1" opacity="1" d="M 2016.5 646 L 2020 646.5 L 2016.5 647 L 2016.5 646 Z " /><path fill="rgb(161,161,161)" stroke="rgb(161,161,161)" stroke-width="1" opacity="1" d="M 1996.5 647 L 2011 647.5 L 1996.5 648 L 1996.5 647 Z " /><path fill="rgb(128,173,253)" stroke="rgb(128,173,253)" stroke-width="1" opacity="1" d="M 580.5 11 L 581.5 13 L 580.5 11 Z " /><path fill="rgb(128,173,253)" stroke="rgb(128,173,253)" stroke-width="1" opacity="1" d="M 427.5 14 L 426.5 16 L 427.5 14 Z " /><path fill="rgb(128,173,253)" stroke="rgb(128,173,253)" stroke-width="1" opacity="1" d="M 422.5 17 L 421.5 19 L 422.5 17 Z " /><path fill="rgb(128,173,253)" stroke="rgb(128,173,253)" stroke-width="1" opacity="1" d="M 416.5 21 L 415.5 23 L 416.5 21 Z " /><path fill="rgb(128,173,253)" stroke="rgb(128,173,253)" stroke-width="1" opacity="1" d="M 599.5 23 L 600.5 25 L 599.5 23 Z " /><path fill="rgb(128,173,253)" stroke="rgb(128,173,253)" stroke-width="1" opacity="1" d="M 412.5 24 L 411.5 26 L 412.5 24 Z " /><path fill="rgb(128,173,253)" stroke="rgb(128,173,253)" stroke-width="1" opacity="1" d="M 603.5 26 L 604.5 28 L 603.5 26 Z " /><path fill="rgb(128,173,253)" stroke="rgb(128,173,253)" stroke-width="1" opacity="1" d="M 408.5 27 L 407.5 29 L 408.5 27 Z " /><path fill="rgb(128,173,253)" stroke="rgb(128,173,253)" stroke-width="1" opacity="1" d="M 608.5 30 L 610.5 33 L 608.5 30 Z " /><path fill="rgb(128,173,253)" stroke="rgb(128,173,253)" stroke-width="1" opacity="1" d="M 403.5 31 L 399.5 36 L 403.5 31 Z " /><path fill="rgb(128,173,253)" stroke="rgb(128,173,253)" stroke-width="1" opacity="1" d="M 287.5 34 L 345.5 34 L 346.5 35 L 363.5 35 L 364.5 36 L 375.5 36 L 376.5 37 L 396 38.5 Q 370.3 62.3 357 98.5 L 350 125.5 L 349 142.5 L 348 143.5 L 348 159.5 L 349 160.5 L 349 170.5 L 350 171.5 L 351 183.5 Q 355.3 203.2 363 219.5 Q 375.7 245.8 395.5 265 Q 418.7 288.3 452.5 301 L 484.5 309 L 492.5 309 L 493.5 310 L 519.5 310 L 520.5 309 L 528.5 309 L 544.5 306 L 568.5 298 Q 599.3 284.8 620.5 262 L 622 287.5 L 623 288.5 L 623 303.5 L 624 304.5 L 625 350.5 L 624 351.5 L 624 382.5 L 623 383.5 L 623 395.5 L 622 396.5 L 620 424.5 L 619 425.5 L 618 439.5 L 613 463.5 L 613 468.5 L 605 504.5 Q 588.8 559.3 551.5 593 Q 519.9 622.4 472.5 636 L 431.5 645 L 401.5 649 L 400.5 650 L 393.5 650 L 392.5 651 L 384.5 651 L 374.5 653 L 363.5 653 L 362.5 654 L 348.5 654 L 347.5 655 L 316.5 655 L 315.5 656 L 305.5 656 L 304.5 655 L 273.5 655 L 272.5 654 L 237.5 652 L 236.5 651 L 229.5 651 L 228.5 650 L 221.5 650 L 207.5 647 L 195.5 646 L 153.5 637 Q 95.9 619.1 61 578.5 Q 32.7 547.8 21 500.5 L 12 454.5 L 12 448.5 L 7 419.5 L 6 401.5 L 5 400.5 L 4 370.5 L 3 369.5 L 3 317.5 L 4 316.5 L 5 286.5 L 6 285.5 L 6 277.5 L 7 276.5 L 7 268.5 L 8 267.5 L 10 246.5 L 18 203.5 L 26 173.5 Q 42.9 125.4 77.5 95 Q 108 67.5 152.5 54 L 181.5 47 L 220.5 40 L 245.5 38 L 246.5 37 L 255.5 37 L 256.5 36 L 268.5 36 L 269.5 35 L 286.5 35 L 287.5 34 Z " /><path fill="rgb(128,173,253)" stroke="rgb(128,173,253)" stroke-width="1" opacity="1" d="M 625.5 47 L 628.5 51 L 625.5 47 Z " /><path fill="rgb(128,173,253)" stroke="rgb(128,173,253)" stroke-width="1" opacity="1" d="M 630.5 53 L 632.5 56 L 630.5 53 Z " /><path fill="rgb(128,173,253)" stroke="rgb(128,173,253)" stroke-width="1" opacity="1" d="M 636.5 61 L 637.5 63 L 636.5 61 Z " /><path fill="rgb(128,173,253)" stroke="rgb(128,173,253)" stroke-width="1" opacity="1" d="M 638.5 64 L 639.5 66 L 638.5 64 Z " /><path fill="rgb(128,173,253)" stroke="rgb(128,173,253)" stroke-width="1" opacity="1" d="M 662.5 123 L 663 125.5 L 662 125.5 L 662.5 123 Z " /><path fill="rgb(128,173,253)" stroke="rgb(128,173,253)" stroke-width="1" opacity="1" d="M 663.5 129 L 664 132.5 L 663 132.5 L 663.5 129 Z " /><path fill="rgb(128,173,253)" stroke="rgb(128,173,253)" stroke-width="1" opacity="1" d="M 664.5 138 L 665 143.5 L 664 143.5 L 664.5 138 Z " /><path fill="rgb(128,173,253)" stroke="rgb(128,173,253)" stroke-width="1" opacity="1" d="M 664.5 160 L 665 165.5 L 664 165.5 L 664.5 160 Z " /><path fill="rgb(128,173,253)" stroke="rgb(128,173,253)" stroke-width="1" opacity="1" d="M 663.5 171 L 664 174.5 L 663 174.5 L 663.5 171 Z " /><path fill="rgb(128,173,253)" stroke="rgb(128,173,253)" stroke-width="1" opacity="1" d="M 662.5 178 L 663 180.5 L 662 180.5 L 662.5 178 Z " /><path fill="rgb(128,173,253)" stroke="rgb(128,173,253)" stroke-width="1" opacity="1" d="M 640.5 236 L 639.5 238 L 640.5 236 Z " /><path fill="rgb(128,173,253)" stroke="rgb(128,173,253)" stroke-width="1" opacity="1" d="M 636.5 242 L 635.5 244 L 636.5 242 Z " /><path fill="rgb(128,173,253)" stroke="rgb(128,173,253)" stroke-width="1" opacity="1" d="M 633.5 246 L 632.5 248 L 633.5 246 Z " /><path fill="rgb(128,173,253)" stroke="rgb(128,173,253)" stroke-width="1" opacity="1" d="M 630.5 250 L 628.5 253 L 630.5 250 Z " /><path fill="rgb(128,173,253)" stroke="rgb(128,173,253)" stroke-width="1" opacity="1" d="M 625.5 256 L 621.5 261 L 625.5 256 Z " /></svg>